<svg width="100" height="100" viewBox="0 0 100 100" fill="none" xmlns="http://www.w3.org/2000/svg">
<g id="Group 1">
<rect id="Rectangle 2" width="100" height="100" rx="20" fill="#0B101B"/>
<g id="Group 176865">
<path id="Union" fill-rule="evenodd" clip-rule="evenodd" d="M63.2159 33.6163C63.3421 33.8172 63.4052 33.9177 63.5027 33.9427C63.6001 33.9678 63.7015 33.9116 63.9041 33.7993L64.1999 33.6353C64.4137 33.5167 64.5206 33.4575 64.5478 33.3523C64.575 33.2472 64.5116 33.1456 64.3848 32.9425C61.4627 28.26 56.3028 25.1061 50.3743 25.0026C44.4458 24.8991 39.179 27.8709 36.0952 32.4486C35.9615 32.6472 35.8946 32.7465 35.9181 32.8525C35.9416 32.9585 36.0464 33.0214 36.2559 33.1474L36.5458 33.3216C36.7444 33.441 36.8437 33.5007 36.942 33.479C37.0403 33.4573 37.1069 33.3591 37.24 33.1628C40.0806 28.9731 44.9131 26.2559 50.3508 26.3509C55.7884 26.4458 60.5232 29.3301 63.2159 33.6163ZM50.3008 58.1901C50.2965 58.4364 50.2943 58.5595 50.3725 58.6358C50.4506 58.712 50.5715 58.7068 50.8132 58.6965C59.6496 58.32 66.7723 51.1132 66.9288 42.1502C66.9749 39.5057 66.4097 36.9929 65.3634 34.7466C65.2606 34.5261 65.2093 34.4159 65.1047 34.3819C65.0002 34.3479 64.8916 34.4081 64.6743 34.5286L64.3776 34.6931C64.1785 34.8035 64.0789 34.8587 64.048 34.9531C64.0172 35.0475 64.066 35.1533 64.1637 35.365C65.1116 37.4189 65.623 39.7132 65.5809 42.1266C65.4373 50.3554 58.9115 56.9751 50.8056 57.347C50.57 57.3579 50.4522 57.3633 50.3824 57.435C50.3127 57.5068 50.3107 57.6217 50.3067 57.8515L50.3008 58.1901ZM35.0544 34.2175C33.9303 36.4258 33.2778 38.9174 33.2316 41.5618C33.0752 50.5249 39.9422 57.9759 48.7601 58.6607C49.0013 58.6794 49.1219 58.6888 49.2026 58.6153C49.2834 58.5419 49.2856 58.4187 49.2899 58.1724L49.2958 57.8339C49.2998 57.604 49.3018 57.4891 49.2346 57.415C49.1674 57.3408 49.0499 57.3313 48.8148 57.3123H48.8148C40.7268 56.6576 34.4359 49.8141 34.5795 41.5854C34.6216 39.1719 35.2128 36.8969 36.2317 34.8773C36.3367 34.6692 36.3892 34.5651 36.3617 34.4697C36.3341 34.3743 36.2366 34.3156 36.0415 34.1984L36.0414 34.1984L35.7506 34.0235C35.5377 33.8956 35.4312 33.8316 35.3256 33.8619C35.2199 33.8923 35.1647 34.0007 35.0544 34.2175ZM43.8848 35.4681C46.4178 32.9344 49.4175 31.4067 52.1838 30.9489C54.9523 30.4906 57.3991 31.1079 59.0175 32.7267C60.6359 34.3456 61.253 36.7931 60.7949 39.5624C60.3372 42.3295 58.81 45.3301 56.277 47.8638C53.744 50.3975 50.7443 51.9252 47.9779 52.383C45.2094 52.8413 42.7626 52.224 41.1442 50.6052C39.5258 48.9863 38.9088 46.5388 39.3669 43.7695C39.8246 41.0024 41.3518 38.0018 43.8848 35.4681ZM60.4474 31.2965C58.249 29.0974 55.0797 28.4193 51.8537 28.9533C48.6255 29.4876 45.2524 31.2396 42.4549 34.0378C39.6575 36.836 37.906 40.2102 37.3718 43.4393C36.838 46.6662 37.5159 49.8364 39.7144 52.0354C41.9128 54.2345 45.0821 54.9126 48.3081 54.3786C51.5362 53.8443 54.9094 52.0923 57.7068 49.2941C60.5043 46.4959 62.2558 43.1217 62.7899 39.8926C63.3237 36.6657 62.6459 33.4955 60.4474 31.2965Z" fill="#D2FD2B"/>
<path id="Union_2" fill-rule="evenodd" clip-rule="evenodd" d="M49.5665 33.8668C49.1167 34.7667 48.3873 35.4963 47.4877 35.9463C47.3449 36.0177 47.3449 36.2214 47.4877 36.2928C48.3873 36.7428 49.1167 37.4724 49.5665 38.3723C49.6379 38.5151 49.8416 38.5151 49.913 38.3723C50.3628 37.4724 51.0923 36.7428 51.9919 36.2928C52.1346 36.2214 52.1346 36.0177 51.9919 35.9463C51.0923 35.4963 50.3628 34.7667 49.913 33.8668C49.8416 33.724 49.6379 33.724 49.5665 33.8668ZM55.7995 47.3871C51.1271 52.0608 44.7787 53.2881 41.62 50.1285C40.4936 49.0017 39.9249 47.4693 39.8712 45.7519C39.8587 45.3534 39.8525 45.1542 39.9905 45.0027C40.1286 44.8511 40.342 44.838 40.769 44.8116C43.7262 44.6292 46.85 44.5315 50.0799 44.5315C52.1724 44.5315 54.2203 44.5725 56.2072 44.651C57.0003 44.6823 57.3969 44.698 57.5248 44.9847C57.6528 45.2715 57.4089 45.5661 56.9211 46.1554C56.5728 46.5762 56.1987 46.9878 55.7995 47.3871Z" fill="#FEFFFE"/>
</g>
<path id="Union_3" fill-rule="evenodd" clip-rule="evenodd" d="M61.8397 65.4179L62.0333 64.3195H60.0666L59.8729 65.4179H57.2037L56.8647 67.3403H59.5339L59.3106 68.6067C59.1377 69.5869 58.9912 70.4179 58.9655 71.0805C58.9381 71.7853 59.0384 72.4418 59.4873 72.9718C59.9362 73.5019 60.5705 73.7131 61.275 73.8078C61.9372 73.8969 62.7874 73.8969 63.7903 73.8968L66.3152 73.8968L66.6541 71.9745H64.1957C63.1083 71.9745 62.392 71.9725 61.873 71.9026C61.3816 71.8365 61.2137 71.7259 61.1177 71.6125C61.0217 71.4992 60.9408 71.316 60.9599 70.8243C60.98 70.305 61.1014 69.6046 61.2888 68.5417L61.5007 67.3403H67.4713L67.8102 65.4179H61.8397ZM44.7456 67.9589C44.9964 66.5366 46.3793 65.3836 47.8345 65.3836H55.9453L55.6064 67.306H47.4955C47.1266 67.306 46.776 67.5983 46.7124 67.9589C46.6488 68.3195 46.8963 68.6118 47.2653 68.6118H53.2513C54.7251 68.6118 55.7139 69.7795 55.4599 71.22C55.2059 72.6605 53.8053 73.8282 52.3315 73.8282H43.8498L44.1887 71.9058H52.6705C53.058 71.9058 53.4263 71.5988 53.4931 71.22C53.5599 70.8412 53.2999 70.5341 52.9123 70.5341H46.9263C45.4711 70.5341 44.4948 69.3811 44.7456 67.9589ZM40.9317 65.404C40.6091 65.3836 40.2138 65.3836 39.7482 65.3836L33.6083 65.3836L33.2693 67.306H39.379C39.883 67.306 40.2147 67.3064 40.4677 67.3224C40.7126 67.338 40.8163 67.3652 40.875 67.389C41.1854 67.5145 41.4029 67.7714 41.4741 68.0964C41.4875 68.1579 41.4967 68.2639 41.4699 68.5061C41.4662 68.5399 41.4619 68.575 41.4571 68.6118H34.7862C33.3125 68.6118 31.9118 69.7795 31.6578 71.22C31.4038 72.6605 32.3927 73.8282 33.8664 73.8282H42.5152L43.4349 68.6118H43.4253C43.4366 68.532 43.4463 68.4558 43.4544 68.3831C43.4913 68.0494 43.501 67.7242 43.4309 67.4037C43.2491 66.5732 42.6931 65.9166 41.9 65.5958C41.5938 65.472 41.2693 65.4254 40.9317 65.404ZM41.1292 70.5341L40.8873 71.9058H34.2054C33.8178 71.9058 33.5578 71.5988 33.6246 71.22C33.6914 70.8412 34.0597 70.5341 34.4473 70.5341H41.1292ZM87.6535 65.3836L81.5135 65.3836L81.1746 67.306H87.2842C87.7882 67.306 88.1199 67.3064 88.3729 67.3224C88.6179 67.338 88.7215 67.3652 88.7803 67.389C89.0907 67.5145 89.3082 67.7714 89.3793 68.0964C89.3928 68.1579 89.402 68.2639 89.3752 68.5061C89.3714 68.5399 89.3672 68.575 89.3624 68.6118H82.9724C81.4987 68.6118 80.0981 69.7795 79.8441 71.22C79.5901 72.6604 80.5789 73.8282 82.0526 73.8282H90.4204L91.3402 68.6118H91.3306C91.3418 68.532 91.3516 68.4558 91.3596 68.3831C91.3966 68.0494 91.4063 67.7242 91.3361 67.4037C91.1543 66.5732 90.5984 65.9166 89.8052 65.5958C89.4991 65.472 89.1746 65.4254 88.837 65.404C88.5143 65.3836 88.1191 65.3836 87.6535 65.3836ZM88.7926 71.9058H82.3916C82.0041 71.9058 81.744 71.5988 81.8108 71.22C81.8776 70.8412 82.2459 70.5341 82.6335 70.5341H89.0345L88.7926 71.9058ZM76.1336 67.4265C75.8728 67.4094 75.5305 67.4089 75.0103 67.4089H71.0415L69.8975 73.8968H67.9308L69.4137 65.4866L75.3805 65.4866C75.861 65.4866 76.269 65.4866 76.6016 65.5083C76.9498 65.5311 77.284 65.5806 77.5978 65.7123C78.3625 66.0333 78.9011 66.6694 79.088 67.4721C79.1647 67.8015 79.1563 68.1368 79.1189 68.481C79.0831 68.8099 79.0128 69.2086 78.93 69.6782L78.9246 69.7088H76.9578C77.0475 69.2004 77.106 68.8657 77.134 68.6078C77.1611 68.3582 77.1507 68.2492 77.136 68.1859C77.0628 67.8718 76.8521 67.6229 76.5529 67.4973C76.4925 67.4719 76.3861 67.443 76.1336 67.4265ZM14.0688 65.1779H17.5809L17.6404 65.1778C17.8539 65.1776 18.0948 65.1774 18.3143 65.2003C20.259 65.4029 21.5544 66.9326 21.4204 68.8683C21.4053 69.0867 21.3635 69.3221 21.3265 69.5308L21.3265 69.5309L21.3162 69.589L21.3085 69.633L21.306 69.6471C21.2694 69.8558 21.2281 70.0912 21.1662 70.3097C20.6176 72.2453 18.7828 73.775 16.7666 73.9777C16.5391 74.0005 16.2983 74.0003 16.0849 74.0001H16.0848H16.0848L16.0253 74L12.4537 74.0001H12.4537C12.2402 74.0003 11.9993 74.0005 11.7798 73.9777C9.83516 73.775 8.53981 72.2453 8.67379 70.3097C8.68891 70.0912 8.73067 69.8557 8.76768 69.647L8.77796 69.589L8.78816 69.5309C8.82474 69.3222 8.86601 69.0868 8.92794 68.8683C9.47658 66.9326 11.3114 65.4029 13.3275 65.2003C13.5551 65.1774 13.7959 65.1776 14.0094 65.1778L14.0688 65.1779ZM10.7447 69.589L10.7447 69.589L10.7447 69.589C10.697 69.8599 10.6731 69.9954 10.6652 70.1095C10.6551 70.2554 10.6602 70.397 10.6794 70.5328L18.2631 67.2239C18.1106 67.1683 17.9464 67.1303 17.7724 67.1122C17.6578 67.1002 17.5192 67.1002 17.242 67.1002H13.7299C13.4526 67.1002 13.314 67.1002 13.1952 67.1122C12.1199 67.2202 11.1413 68.0361 10.8487 69.0684C10.8164 69.1825 10.7925 69.318 10.7447 69.589ZM12.3217 72.0658C12.1706 72.05 12.0268 72.0192 11.8917 71.9749L19.4206 68.69C19.4349 68.8121 19.438 68.9385 19.429 69.0684C19.4211 69.1825 19.3972 69.318 19.3494 69.5889L19.3494 69.589L19.3494 69.589C19.3016 69.86 19.2777 69.9954 19.2454 70.1095C18.9528 71.1418 17.9743 71.9577 16.899 72.0658C16.7802 72.0777 16.6416 72.0777 16.3643 72.0777H12.8522C12.5749 72.0777 12.4363 72.0777 12.3217 72.0658ZM22.5822 69.0905C23.4556 69.0905 24.2303 69.4389 24.7297 70.0561L25.0834 70.4932L24.5756 70.9303C23.8585 71.5476 22.9609 71.8959 22.0876 71.8959H21.9931L21.6517 73.832H21.7462C23.1511 73.832 24.595 73.2716 25.7486 72.2787L26.2166 71.8759L26.5419 72.2677C27.3467 73.2372 28.5791 73.7825 29.9651 73.7825H30.0856L30.427 71.8464H30.3065C29.4449 71.8464 28.6788 71.5074 28.1786 70.9048L27.8311 70.4863L28.3309 70.0561C29.048 69.4389 29.9455 69.0905 30.8189 69.0905H30.9133L31.2547 67.1544H31.1603C29.7553 67.1544 28.3114 67.7148 27.1578 68.7077L26.6983 69.1032L26.3783 68.7077C25.5748 67.7148 24.3286 67.1544 22.9236 67.1544H22.8291L22.4877 69.0905H22.5822Z" fill="white"/>
</g>
</svg>
