<svg width="95" height="23" viewBox="0 0 95 23" fill="none" xmlns="http://www.w3.org/2000/svg">
<g id="1delta logo">
<path id="Vector" d="M26.7869 22.2713C26.7869 22.664 26.4819 22.9842 26.0953 23.0053H18.5806C18.5685 23.0053 18.5564 23.0053 18.5443 23.0053C18.2514 23.0053 18.0007 22.8362 17.8829 22.5885V22.5824L11.6126 11.6306H11.6005C11.5008 11.3376 11.229 11.1292 10.9058 11.1292C10.6551 11.1292 10.4346 11.253 10.3048 11.4433H10.2927L6.26351 18.4989C6.16082 18.6257 6.10041 18.7858 6.10041 18.961C6.10041 19.3657 6.42963 19.695 6.83436 19.695H10.6551C10.8998 19.695 11.1172 19.8158 11.2501 20.0031V20.0091L11.3166 20.1239L12.3435 21.9089C12.4009 22.0176 12.4371 22.1385 12.4371 22.2683C12.4371 22.6398 12.1593 22.9479 11.7998 22.9962L11.7968 23.0023H1.39467C1.37655 23.0023 1.36145 23.0023 1.34332 23.0023C0.938593 23.0023 0.609375 22.6731 0.609375 22.2683C0.609375 22.1505 0.636557 22.0388 0.687903 21.9421L13.014 0.443121C13.1258 0.180349 13.3855 -0.00390625 13.6906 -0.00390625C13.9594 -0.00390625 14.192 0.138067 14.3188 0.352514L14.337 0.38271L26.6963 21.9029C26.7598 22.0116 26.796 22.1354 26.796 22.2713H26.7869Z" fill="#0F1823"/>
<g id="Group">
<path id="Vector_2" d="M31.2344 4.97681L35.5626 3.47266H37.4443V19.9337H35.2817V5.82554L31.778 6.86152L31.2374 4.97982L31.2344 4.97681Z" fill="#0F1823"/>
<path id="Vector_3" d="M50.565 10.1971V3.4707H52.6098V19.9317H50.565V17.9081C49.5622 19.4606 48.0792 20.2368 46.122 20.2368C44.4608 20.2368 43.0563 19.6418 41.9116 18.4487C40.7518 17.2406 40.1719 15.7757 40.1719 14.0511C40.1719 12.3264 40.7518 10.8857 41.9116 9.67758C43.0714 8.46943 44.4759 7.86836 46.122 7.86836C48.0822 7.86836 49.5622 8.64461 50.565 10.1971ZM46.3787 18.2615C47.5688 18.2615 48.5655 17.8628 49.3659 17.0624C50.1663 16.2318 50.565 15.229 50.565 14.0511C50.565 12.8731 50.1663 11.8643 49.3659 11.0639C48.5655 10.2484 47.5718 9.84068 46.3787 9.84068C45.1857 9.84068 44.2161 10.2484 43.4158 11.0639C42.6154 11.8643 42.2167 12.858 42.2167 14.0511C42.2167 15.2441 42.6154 16.2288 43.4158 17.0624C44.2161 17.8628 45.2038 18.2615 46.3787 18.2615Z" fill="#0F1823"/>
<path id="Vector_4" d="M67.0003 14.9931H57.1478C57.3502 16.0291 57.8304 16.8386 58.5825 17.4276C59.3346 18.0165 60.2769 18.3095 61.4035 18.3095C62.956 18.3095 64.0856 17.7387 64.7893 16.5939L66.5291 17.5816C65.3693 19.3546 63.6446 20.2395 61.3552 20.2395C59.5037 20.2395 57.9844 19.6596 56.7944 18.4998C55.6346 17.3098 55.0547 15.8268 55.0547 14.0568C55.0547 12.2869 55.6255 10.7948 56.7703 9.635C57.915 8.46007 59.395 7.87109 61.2162 7.87109C62.9409 7.87109 64.3423 8.48121 65.4266 9.70446C66.523 10.8975 67.0727 12.3533 67.0727 14.078C67.0727 14.377 67.0486 14.682 67.0033 14.9962L67.0003 14.9931ZM61.2162 9.79507C60.135 9.79507 59.2288 10.1001 58.5009 10.7133C57.773 11.3264 57.32 12.157 57.1478 13.2051H65.0008C64.8286 12.1238 64.3967 11.2841 63.708 10.6891C63.0194 10.0941 62.1888 9.79507 61.2162 9.79507Z" fill="#0F1823"/>
<path id="Vector_5" d="M71.4667 19.9315H69.4219V2.76367H71.4667V19.9315Z" fill="#0F1823"/>
<path id="Vector_6" d="M80.9918 8.17696V10.1523H77.8657V16.5253C77.8657 17.1052 77.9805 17.5159 78.207 17.7606C78.4335 18.0052 78.7839 18.1291 79.2551 18.1381C79.7262 18.1472 80.3061 18.1351 80.9948 18.1019V19.9353C79.1916 20.1709 77.8778 20.0198 77.0562 19.4883C76.2347 18.9567 75.8209 17.969 75.8209 16.5253V10.1523H73.4922V8.17696H75.8209V5.49487L77.8657 4.88477V8.17696H80.9918Z" fill="#0F1823"/>
<path id="Vector_7" d="M92.565 10.1979V8.1742H94.6098V19.9325H92.565V17.9089C91.5622 19.4613 90.0792 20.2376 88.122 20.2376C86.4608 20.2376 85.0563 19.6426 83.9116 18.4495C82.7518 17.2414 82.1719 15.7765 82.1719 14.0519C82.1719 12.3272 82.7518 10.8865 83.9116 9.67836C85.0714 8.47021 86.4759 7.86914 88.122 7.86914C90.0822 7.86914 91.5622 8.64538 92.565 10.1979ZM88.3787 18.2622C89.5688 18.2622 90.5655 17.8636 91.3659 17.0632C92.1663 16.2326 92.565 15.2298 92.565 14.0519C92.565 12.8739 92.1663 11.8651 91.3659 11.0647C90.5655 10.2492 89.5718 9.84145 88.3787 9.84145C87.1857 9.84145 86.2161 10.2492 85.4158 11.0647C84.6154 11.8651 84.2167 12.8588 84.2167 14.0519C84.2167 15.2449 84.6154 16.2295 85.4158 17.0632C86.2161 17.8636 87.2038 18.2622 88.3787 18.2622Z" fill="#0F1823"/>
</g>
</g>
</svg>
