<svg width="196" height="39" viewBox="0 0 196 39" fill="none" xmlns="http://www.w3.org/2000/svg">
<g clip-path="url(#clip0_2747_56916)">
<path d="M61.4645 24.8693H51.1671C49.9597 24.8693 48.9333 24.4728 48.0881 23.6799C47.243 22.87 46.8203 21.8616 46.8203 20.6552V15.7688C46.8203 14.5623 47.243 13.5627 48.0881 12.7698C48.9333 11.9597 49.9597 11.5547 51.1671 11.5547H61.4645V14.6571H51.1671C50.3391 14.6571 49.9251 15.0277 49.9251 15.7688V20.6552C49.9251 21.3963 50.3391 21.7668 51.1671 21.7668H61.4645V24.8693Z" fill="white"/>
<path d="M80.4583 24.8693H77.3017V19.7502H67.1594V24.8693H64.0547V11.5547H67.1594V16.6478H77.3017V11.5547H80.4583V24.8693Z" fill="white"/>
<path d="M99.365 24.8693H96.2602V20.6293H88.0843V17.5268H96.2602V15.6654C96.2602 14.9931 96.036 14.6571 95.5875 14.6571H86.7907C86.3594 14.6571 86.1438 14.9931 86.1438 15.6654V24.8693H83.0391V15.6654C83.0391 14.545 83.384 13.5799 84.074 12.7698C84.7812 11.9597 85.6867 11.5547 86.7907 11.5547H95.5875C96.7087 11.5547 97.6142 11.9597 98.3042 12.7698C99.0114 13.5799 99.365 14.545 99.365 15.6654V24.8693Z" fill="white"/>
<path d="M105.046 24.8654H101.941V11.5508H105.046V24.8654Z" fill="white"/>
<path d="M121.838 24.8693H118.733L110.738 15.8981V24.8693H107.633V11.5547H110.738L118.733 20.4483V11.5547H121.838V24.8693Z" fill="white"/>
<path d="M140.301 20.7586C140.301 21.8789 139.964 22.8354 139.292 23.6283C138.567 24.4556 137.653 24.8693 136.549 24.8693H125.062V21.7668H136.549C136.98 21.7668 137.195 21.4307 137.195 20.7586C137.195 20.0863 136.98 19.7502 136.549 19.7502H128.192C127.088 19.7502 126.174 19.3365 125.449 18.5092C124.76 17.7337 124.414 16.7857 124.414 15.6654C124.414 14.545 124.768 13.5799 125.475 12.7698C126.182 11.9597 127.088 11.5547 128.192 11.5547H139.679V14.6571H128.192C127.76 14.6571 127.545 14.9931 127.545 15.6654C127.545 16.3203 127.76 16.6478 128.192 16.6478H136.549C137.653 16.6478 138.567 17.0614 139.292 17.8887C139.964 18.6816 140.301 19.6382 140.301 20.7586Z" fill="white"/>
<path d="M159.55 16.0532C159.55 17.2425 159.222 18.2593 158.567 19.1039C157.859 20.0519 156.927 20.5259 155.772 20.5259H145.992V24.8693H142.887V11.5547H155.772C156.927 11.5547 157.859 12.0287 158.567 12.9766C159.222 13.8384 159.55 14.8639 159.55 16.0532ZM156.444 16.0532C156.444 15.1224 156.22 14.6571 155.772 14.6571H145.992V17.4234H155.772C156.22 17.4234 156.444 16.9667 156.444 16.0532Z" fill="white"/>
<path d="M178.656 20.6552C178.656 21.8616 178.232 22.87 177.388 23.6799C176.542 24.4728 175.516 24.8693 174.309 24.8693H166.495C165.288 24.8693 164.261 24.4728 163.416 23.6799C162.571 22.87 162.148 21.8616 162.148 20.6552V15.7688C162.148 14.5623 162.571 13.5627 163.416 12.7698C164.261 11.9597 165.288 11.5547 166.495 11.5547H174.309C175.516 11.5547 176.542 11.9597 177.388 12.7698C178.232 13.5627 178.656 14.5623 178.656 15.7688V20.6552ZM175.55 20.6552V15.7688C175.55 15.0277 175.136 14.6571 174.309 14.6571H166.495C165.667 14.6571 165.253 15.0277 165.253 15.7688V20.6552C165.253 21.3963 165.667 21.7668 166.495 21.7668H174.309C175.136 21.7668 175.55 21.3963 175.55 20.6552Z" fill="white"/>
<path d="M196 14.6571H189.998V24.8693H186.893V14.6571H180.891V11.5547H196V14.6571Z" fill="white"/>
<path d="M85.7812 17.5234H88.8104V20.6249H85.7812V17.5234Z" fill="white"/>
<g filter="url(#filter0_i_2747_56916)">
<path d="M19.5064 38.9834C30.2796 38.9834 39.0129 30.2567 39.0129 19.4917C39.0129 8.72674 30.2796 0 19.5064 0C8.73333 0 0 8.72674 0 19.4917C0 30.2567 8.73333 38.9834 19.5064 38.9834Z" fill="url(#paint0_radial_2747_56916)"/>
<path d="M19.5064 38.9834C30.2796 38.9834 39.0129 30.2567 39.0129 19.4917C39.0129 8.72674 30.2796 0 19.5064 0C8.73333 0 0 8.72674 0 19.4917C0 30.2567 8.73333 38.9834 19.5064 38.9834Z" fill="url(#paint1_radial_2747_56916)"/>
</g>
<mask id="mask0_2747_56916" style="mask-type:alpha" maskUnits="userSpaceOnUse" x="0" y="0" width="40" height="39">
<path d="M19.5064 38.9834C30.2796 38.9834 39.0129 30.2567 39.0129 19.4917C39.0129 8.72674 30.2796 0 19.5064 0C8.73333 0 0 8.72674 0 19.4917C0 30.2567 8.73333 38.9834 19.5064 38.9834Z" fill="url(#paint2_radial_2747_56916)"/>
<path d="M19.5064 38.9834C30.2796 38.9834 39.0129 30.2567 39.0129 19.4917C39.0129 8.72674 30.2796 0 19.5064 0C8.73333 0 0 8.72674 0 19.4917C0 30.2567 8.73333 38.9834 19.5064 38.9834Z" fill="url(#paint3_radial_2747_56916)"/>
</mask>
<g mask="url(#mask0_2747_56916)">
<path fill-rule="evenodd" clip-rule="evenodd" d="M10.6211 18.1258C10.6211 13.9811 13.9813 10.6211 18.1263 10.6211H39.1776V12.8139H18.1263C15.1924 12.8139 12.8141 15.1921 12.8141 18.1258V25.7234C12.8141 28.657 15.1924 31.0352 18.1263 31.0352H35.6091V33.228H18.1263C13.9813 33.228 10.6211 29.8681 10.6211 25.7234V18.1258Z" fill="white"/>
<path fill-rule="evenodd" clip-rule="evenodd" d="M16.3672 18.4016C16.3672 16.9113 17.5755 15.7031 19.0659 15.7031H40.0488V17.8959H19.0659C18.7867 17.8959 18.5602 18.1224 18.5602 18.4016V20.3202C18.5602 20.5994 18.7867 20.8258 19.0659 20.8258H33.7636V23.0186H19.0659C17.5755 23.0186 16.3672 21.8104 16.3672 20.3202V18.4016Z" fill="white"/>
<path fill-rule="evenodd" clip-rule="evenodd" d="M43.2888 24.478C43.2888 22.4579 41.6511 20.8203 39.6309 20.8203H23.3832V23.0131H39.6309C40.4399 23.0131 41.0959 23.669 41.0959 24.478C41.0959 25.2871 40.4399 25.943 39.6309 25.943H17.7656V28.1358H39.6309C41.6511 28.1358 43.2888 26.4981 43.2888 24.478Z" fill="white"/>
</g>
</g>
<defs>
<filter id="filter0_i_2747_56916" x="0" y="0" width="39.0127" height="38.9834" filterUnits="userSpaceOnUse" color-interpolation-filters="sRGB">
<feFlood flood-opacity="0" result="BackgroundImageFix"/>
<feBlend mode="normal" in="SourceGraphic" in2="BackgroundImageFix" result="shape"/>
<feColorMatrix in="SourceAlpha" type="matrix" values="0 0 0 0 0 0 0 0 0 0 0 0 0 0 0 0 0 0 127 0" result="hardAlpha"/>
<feOffset/>
<feGaussianBlur stdDeviation="2.94102"/>
<feComposite in2="hardAlpha" operator="arithmetic" k2="-1" k3="1"/>
<feColorMatrix type="matrix" values="0 0 0 0 0.160349 0 0 0 0 0.114062 0 0 0 0 0.9125 0 0 0 1 0"/>
<feBlend mode="normal" in2="shape" result="effect1_innerShadow_2747_56916"/>
</filter>
<radialGradient id="paint0_radial_2747_56916" cx="0" cy="0" r="1" gradientUnits="userSpaceOnUse" gradientTransform="translate(-7.31492 34.8799) rotate(-22.3351) scale(67.1505 67.1144)">
<stop offset="0.421875" stop-color="#402AFD"/>
<stop offset="1" stop-color="#0EFFD4"/>
</radialGradient>
<radialGradient id="paint1_radial_2747_56916" cx="0" cy="0" r="1" gradientUnits="userSpaceOnUse" gradientTransform="translate(12.0696 9.01492) rotate(-26.2415) scale(30.5828 16.1835)">
<stop stop-color="#AAFCFF"/>
<stop offset="1" stop-color="white" stop-opacity="0"/>
</radialGradient>
<radialGradient id="paint2_radial_2747_56916" cx="0" cy="0" r="1" gradientUnits="userSpaceOnUse" gradientTransform="translate(-7.31492 34.8799) rotate(-22.3351) scale(67.1505 67.1144)">
<stop offset="0.421875" stop-color="#402AFD"/>
<stop offset="1" stop-color="#0EFFD4"/>
</radialGradient>
<radialGradient id="paint3_radial_2747_56916" cx="0" cy="0" r="1" gradientUnits="userSpaceOnUse" gradientTransform="translate(12.0696 9.01492) rotate(-26.2415) scale(30.5828 16.1835)">
<stop stop-color="#AAFCFF"/>
<stop offset="1" stop-color="white" stop-opacity="0"/>
</radialGradient>
<clipPath id="clip0_2747_56916">
<rect width="196" height="38.9834" fill="white"/>
</clipPath>
</defs>
</svg>
