<svg width="100" height="100" viewBox="0 0 100 100" fill="none" xmlns="http://www.w3.org/2000/svg">
<rect width="100" height="100" rx="20" fill="#0B101B"/>
<g clip-path="url(#clip0_1193_8661)">
<path d="M22.1719 51.1406C24.9562 51.1406 27.7406 51.1406 30.6094 51.1406C30.6094 51.3727 30.6094 51.6047 30.6094 51.8438C31.0734 51.8438 31.5375 51.8438 32.0156 51.8438C32.0156 51.6117 32.0156 51.3797 32.0156 51.1406C32.9438 51.1406 33.8719 51.1406 34.8281 51.1406C34.8281 51.3727 34.8281 51.6047 34.8281 51.8438C35.2922 51.8438 35.7563 51.8438 36.2344 51.8438C36.2344 51.6117 36.2344 51.3797 36.2344 51.1406C37.1625 51.1406 38.0906 51.1406 39.0469 51.1406C39.0469 51.3727 39.0469 51.6047 39.0469 51.8438C39.5109 51.8438 39.975 51.8438 40.4531 51.8438C40.4531 51.6117 40.4531 51.3797 40.4531 51.1406C41.6133 51.1406 42.7734 51.1406 43.9688 51.1406C43.9688 51.3727 43.9688 51.6047 43.9688 51.8438C44.4328 51.8438 44.8969 51.8438 45.375 51.8438C45.375 51.6117 45.375 51.3797 45.375 51.1406C48.1594 51.1406 50.9438 51.1406 53.8125 51.1406C53.8125 51.3727 53.8125 51.6047 53.8125 51.8438C54.0445 51.8438 54.2766 51.8438 54.5156 51.8438C54.5156 53.932 54.5156 56.0203 54.5156 58.1719C54.2836 58.1719 54.0516 58.1719 53.8125 58.1719C53.8125 58.4039 53.8125 58.6359 53.8125 58.875C51.0281 58.875 48.2437 58.875 45.375 58.875C45.375 58.643 45.375 58.4109 45.375 58.1719C44.9109 58.1719 44.4469 58.1719 43.9688 58.1719C43.9688 58.4039 43.9688 58.6359 43.9688 58.875C43.0406 58.875 42.1125 58.875 41.1562 58.875C41.1562 58.643 41.1562 58.4109 41.1562 58.1719C40.9242 58.1719 40.6922 58.1719 40.4531 58.1719C40.4531 57.9398 40.4531 57.7078 40.4531 57.4688C40.2211 57.4688 39.9891 57.4688 39.75 57.4688C39.75 57.7008 39.75 57.9328 39.75 58.1719C39.518 58.1719 39.2859 58.1719 39.0469 58.1719C39.0469 58.4039 39.0469 58.6359 39.0469 58.875C38.1187 58.875 37.1906 58.875 36.2344 58.875C36.2344 58.643 36.2344 58.4109 36.2344 58.1719C35.7703 58.1719 35.3062 58.1719 34.8281 58.1719C34.8281 58.4039 34.8281 58.6359 34.8281 58.875C33.9 58.875 32.9719 58.875 32.0156 58.875C32.0156 58.643 32.0156 58.4109 32.0156 58.1719C31.5516 58.1719 31.0875 58.1719 30.6094 58.1719C30.6094 58.4039 30.6094 58.6359 30.6094 58.875C29.6812 58.875 28.7531 58.875 27.7969 58.875C27.7969 58.643 27.7969 58.4109 27.7969 58.1719C27.5648 58.1719 27.3328 58.1719 27.0938 58.1719C27.0938 57.4758 27.0938 56.7797 27.0938 56.0625C26.6297 56.0625 26.1656 56.0625 25.6875 56.0625C25.6875 56.7586 25.6875 57.4547 25.6875 58.1719C25.4555 58.1719 25.2234 58.1719 24.9844 58.1719C24.9844 58.4039 24.9844 58.6359 24.9844 58.875C24.0562 58.875 23.1281 58.875 22.1719 58.875C22.1719 58.643 22.1719 58.4109 22.1719 58.1719C21.9398 58.1719 21.7078 58.1719 21.4688 58.1719C21.4688 56.0836 21.4688 53.9953 21.4688 51.8438C21.7008 51.8438 21.9328 51.8438 22.1719 51.8438C22.1719 51.6117 22.1719 51.3797 22.1719 51.1406ZM25.6875 52.5469C25.6875 53.475 25.6875 54.4031 25.6875 55.3594C26.1516 55.3594 26.6156 55.3594 27.0938 55.3594C27.0938 54.4312 27.0938 53.5031 27.0938 52.5469C26.6297 52.5469 26.1656 52.5469 25.6875 52.5469ZM48.8906 52.5469C48.8906 53.9391 48.8906 55.3313 48.8906 56.7656C49.3547 56.7656 49.8188 56.7656 50.2969 56.7656C50.2969 55.3734 50.2969 53.9813 50.2969 52.5469C49.8328 52.5469 49.3687 52.5469 48.8906 52.5469ZM43.9688 53.9531C43.9688 54.4172 43.9688 54.8812 43.9688 55.3594C44.2008 55.3594 44.4328 55.3594 44.6719 55.3594C44.6719 54.8953 44.6719 54.4313 44.6719 53.9531C44.4398 53.9531 44.2078 53.9531 43.9688 53.9531Z" fill="#E81899"/>
<path d="M65.0625 51.1406C67.8469 51.1406 70.6312 51.1406 73.5 51.1406C73.5 51.3727 73.5 51.6047 73.5 51.8438C73.9641 51.8438 74.4281 51.8438 74.9062 51.8438C74.9062 51.6117 74.9062 51.3797 74.9062 51.1406C75.8344 51.1406 76.7625 51.1406 77.7188 51.1406C77.7188 51.3727 77.7188 51.6047 77.7188 51.8438C77.9508 51.8438 78.1828 51.8438 78.4219 51.8438C78.4219 53.468 78.4219 55.0922 78.4219 56.7656C78.6539 56.7656 78.8859 56.7656 79.125 56.7656C79.125 56.0695 79.125 55.3734 79.125 54.6562C79.5891 54.6562 80.0531 54.6562 80.5312 54.6562C80.5312 54.8883 80.5312 55.1203 80.5312 55.3594C80.7633 55.3594 80.9953 55.3594 81.2344 55.3594C81.2344 55.8234 81.2344 56.2875 81.2344 56.7656C81.4664 56.7656 81.6984 56.7656 81.9375 56.7656C81.9375 55.1414 81.9375 53.5172 81.9375 51.8438C82.1695 51.8438 82.4016 51.8438 82.6406 51.8438C82.6406 51.6117 82.6406 51.3797 82.6406 51.1406C83.5688 51.1406 84.4969 51.1406 85.4531 51.1406C85.4531 51.3727 85.4531 51.6047 85.4531 51.8438C85.9172 51.8438 86.3813 51.8438 86.8594 51.8438C86.8594 51.6117 86.8594 51.3797 86.8594 51.1406C87.7875 51.1406 88.7156 51.1406 89.6719 51.1406C89.6719 51.3727 89.6719 51.6047 89.6719 51.8438C89.9039 51.8438 90.1359 51.8438 90.375 51.8438C90.375 52.0758 90.375 52.3078 90.375 52.5469C90.607 52.5469 90.8391 52.5469 91.0781 52.5469C91.0781 52.3148 91.0781 52.0828 91.0781 51.8438C91.3102 51.8438 91.5422 51.8438 91.7812 51.8438C91.7812 51.6117 91.7812 51.3797 91.7812 51.1406C92.7094 51.1406 93.6375 51.1406 94.5938 51.1406C94.5938 51.3727 94.5938 51.6047 94.5938 51.8438C94.8258 51.8438 95.0578 51.8438 95.2969 51.8438C95.2969 53.932 95.2969 56.0203 95.2969 58.1719C95.0648 58.1719 94.8328 58.1719 94.5938 58.1719C94.5938 58.4039 94.5938 58.6359 94.5938 58.875C93.6656 58.875 92.7375 58.875 91.7812 58.875C91.7812 58.643 91.7812 58.4109 91.7812 58.1719C91.5492 58.1719 91.3172 58.1719 91.0781 58.1719C91.0781 57.9398 91.0781 57.7078 91.0781 57.4688C90.8461 57.4688 90.6141 57.4688 90.375 57.4688C90.375 57.7008 90.375 57.9328 90.375 58.1719C90.143 58.1719 89.9109 58.1719 89.6719 58.1719C89.6719 58.4039 89.6719 58.6359 89.6719 58.875C88.7437 58.875 87.8156 58.875 86.8594 58.875C86.8594 58.643 86.8594 58.4109 86.8594 58.1719C86.3953 58.1719 85.9312 58.1719 85.4531 58.1719C85.4531 58.4039 85.4531 58.6359 85.4531 58.875C83.8289 58.875 82.2047 58.875 80.5312 58.875C80.5312 58.643 80.5312 58.4109 80.5312 58.1719C80.2992 58.1719 80.0672 58.1719 79.8281 58.1719C79.8281 58.4039 79.8281 58.6359 79.8281 58.875C78.2039 58.875 76.5797 58.875 74.9062 58.875C74.9062 58.643 74.9062 58.4109 74.9062 58.1719C74.4422 58.1719 73.9781 58.1719 73.5 58.1719C73.5 58.4039 73.5 58.6359 73.5 58.875C70.7156 58.875 67.9312 58.875 65.0625 58.875C65.0625 58.643 65.0625 58.4109 65.0625 58.1719C64.8305 58.1719 64.5984 58.1719 64.3594 58.1719C64.3594 56.0836 64.3594 53.9953 64.3594 51.8438C64.5914 51.8438 64.8234 51.8438 65.0625 51.8438C65.0625 51.6117 65.0625 51.3797 65.0625 51.1406ZM68.5781 52.5469C68.5781 53.9391 68.5781 55.3313 68.5781 56.7656C69.0422 56.7656 69.5062 56.7656 69.9844 56.7656C69.9844 55.3734 69.9844 53.9813 69.9844 52.5469C69.5203 52.5469 69.0563 52.5469 68.5781 52.5469Z" fill="#E81899"/>
<path d="M49.5938 44.8125C56.0906 44.8125 62.5875 44.8125 69.2812 44.8125C69.2812 45.0445 69.2812 45.2766 69.2812 45.5156C69.5133 45.5156 69.7453 45.5156 69.9844 45.5156C69.9844 46.2117 69.9844 46.9078 69.9844 47.625C69.7523 47.625 69.5203 47.625 69.2812 47.625C69.2812 47.857 69.2812 48.0891 69.2812 48.3281C67.193 48.3281 65.1047 48.3281 62.9531 48.3281C62.9531 51.5766 62.9531 54.825 62.9531 58.1719C62.7211 58.1719 62.4891 58.1719 62.25 58.1719C62.25 58.4039 62.25 58.6359 62.25 58.875C60.6258 58.875 59.0016 58.875 57.3281 58.875C57.3281 58.643 57.3281 58.4109 57.3281 58.1719C57.0961 58.1719 56.8641 58.1719 56.625 58.1719C56.625 54.6914 56.625 51.2109 56.625 47.625C54.3047 47.625 51.9844 47.625 49.5938 47.625C49.5938 47.393 49.5938 47.1609 49.5938 46.9219C49.3617 46.9219 49.1297 46.9219 48.8906 46.9219C48.8906 46.4578 48.8906 45.9937 48.8906 45.5156C49.1227 45.5156 49.3547 45.5156 49.5938 45.5156C49.5938 45.2836 49.5938 45.0516 49.5938 44.8125Z" fill="#E81899"/>
<path d="M6.70312 44.8125C13.2 44.8125 19.6969 44.8125 26.3906 44.8125C26.3906 45.0445 26.3906 45.2766 26.3906 45.5156C26.6227 45.5156 26.8547 45.5156 27.0938 45.5156C27.0938 46.2117 27.0938 46.9078 27.0938 47.625C26.8617 47.625 26.6297 47.625 26.3906 47.625C26.3906 47.857 26.3906 48.0891 26.3906 48.3281C24.3023 48.3281 22.2141 48.3281 20.0625 48.3281C20.0625 51.5766 20.0625 54.825 20.0625 58.1719C19.8305 58.1719 19.5984 58.1719 19.3594 58.1719C19.3594 58.4039 19.3594 58.6359 19.3594 58.875C17.7352 58.875 16.1109 58.875 14.4375 58.875C14.4375 58.643 14.4375 58.4109 14.4375 58.1719C14.2055 58.1719 13.9734 58.1719 13.7344 58.1719C13.7344 54.6914 13.7344 51.2109 13.7344 47.625C11.4141 47.625 9.09375 47.625 6.70312 47.625C6.70312 47.393 6.70312 47.1609 6.70312 46.9219C6.47109 46.9219 6.23906 46.9219 6 46.9219C6 46.4578 6 45.9937 6 45.5156C6.23203 45.5156 6.46406 45.5156 6.70312 45.5156C6.70312 45.2836 6.70312 45.0516 6.70312 44.8125Z" fill="#E81899"/>
<path d="M22.1719 51.1406C24.9562 51.1406 27.7406 51.1406 30.6094 51.1406C30.6094 51.3727 30.6094 51.6047 30.6094 51.8438C31.0734 51.8438 31.5375 51.8438 32.0156 51.8438C32.0156 51.6117 32.0156 51.3797 32.0156 51.1406C32.9438 51.1406 33.8719 51.1406 34.8281 51.1406C34.8281 53.2289 34.8281 55.3172 34.8281 57.4688C34.5961 57.4688 34.3641 57.4688 34.125 57.4688C34.125 57.7008 34.125 57.9328 34.125 58.1719C32.9648 58.1719 31.8047 58.1719 30.6094 58.1719C30.6094 58.4039 30.6094 58.6359 30.6094 58.875C29.6812 58.875 28.7531 58.875 27.7969 58.875C27.7969 58.643 27.7969 58.4109 27.7969 58.1719C27.5648 58.1719 27.3328 58.1719 27.0938 58.1719C27.0938 57.4758 27.0938 56.7797 27.0938 56.0625C26.6297 56.0625 26.1656 56.0625 25.6875 56.0625C25.6875 56.7586 25.6875 57.4547 25.6875 58.1719C25.4555 58.1719 25.2234 58.1719 24.9844 58.1719C24.9844 58.4039 24.9844 58.6359 24.9844 58.875C24.0562 58.875 23.1281 58.875 22.1719 58.875C22.1719 58.643 22.1719 58.4109 22.1719 58.1719C21.9398 58.1719 21.7078 58.1719 21.4688 58.1719C21.4688 56.0836 21.4688 53.9953 21.4688 51.8438C21.7008 51.8438 21.9328 51.8438 22.1719 51.8438C22.1719 51.6117 22.1719 51.3797 22.1719 51.1406ZM25.6875 52.5469C25.6875 53.475 25.6875 54.4031 25.6875 55.3594C26.1516 55.3594 26.6156 55.3594 27.0938 55.3594C27.0938 54.4312 27.0938 53.5031 27.0938 52.5469C26.6297 52.5469 26.1656 52.5469 25.6875 52.5469Z" fill="#E81899"/>
<path d="M86.8594 51.1406C87.7875 51.1406 88.7156 51.1406 89.6719 51.1406C89.6719 51.3727 89.6719 51.6047 89.6719 51.8438C89.9039 51.8438 90.1359 51.8438 90.375 51.8438C90.375 52.0758 90.375 52.3078 90.375 52.5469C90.607 52.5469 90.8391 52.5469 91.0781 52.5469C91.0781 52.3148 91.0781 52.0828 91.0781 51.8438C91.3102 51.8438 91.5422 51.8438 91.7812 51.8438C91.7812 51.6117 91.7812 51.3797 91.7812 51.1406C92.7094 51.1406 93.6375 51.1406 94.5938 51.1406C94.5938 51.3727 94.5938 51.6047 94.5938 51.8438C94.8258 51.8438 95.0578 51.8438 95.2969 51.8438C95.2969 53.932 95.2969 56.0203 95.2969 58.1719C95.0648 58.1719 94.8328 58.1719 94.5938 58.1719C94.5938 58.4039 94.5938 58.6359 94.5938 58.875C93.6656 58.875 92.7375 58.875 91.7812 58.875C91.7812 58.643 91.7812 58.4109 91.7812 58.1719C91.5492 58.1719 91.3172 58.1719 91.0781 58.1719C91.0781 57.9398 91.0781 57.7078 91.0781 57.4688C90.8461 57.4688 90.6141 57.4688 90.375 57.4688C90.375 57.7008 90.375 57.9328 90.375 58.1719C90.143 58.1719 89.9109 58.1719 89.6719 58.1719C89.6719 58.4039 89.6719 58.6359 89.6719 58.875C88.7437 58.875 87.8156 58.875 86.8594 58.875C86.8594 58.643 86.8594 58.4109 86.8594 58.1719C86.3953 58.1719 85.9313 58.1719 85.4531 58.1719C85.4531 58.4039 85.4531 58.6359 85.4531 58.875C83.8289 58.875 82.2047 58.875 80.5312 58.875C80.5312 58.643 80.5312 58.4109 80.5312 58.1719C81.9234 58.1719 83.3156 58.1719 84.75 58.1719C84.75 57.9398 84.75 57.7078 84.75 57.4688C84.982 57.4688 85.2141 57.4688 85.4531 57.4688C85.4531 55.6125 85.4531 53.7562 85.4531 51.8438C85.9172 51.8438 86.3812 51.8438 86.8594 51.8438C86.8594 51.6117 86.8594 51.3797 86.8594 51.1406Z" fill="#E81899"/>
<path d="M65.0625 51.1406C67.8469 51.1406 70.6312 51.1406 73.5 51.1406C73.5 53.2289 73.5 55.3172 73.5 57.4688C73.268 57.4688 73.0359 57.4688 72.7969 57.4688C72.7969 57.7008 72.7969 57.9328 72.7969 58.1719C70.0125 58.1719 67.2281 58.1719 64.3594 58.1719C64.3594 56.0836 64.3594 53.9953 64.3594 51.8438C64.5914 51.8438 64.8234 51.8438 65.0625 51.8438C65.0625 51.6117 65.0625 51.3797 65.0625 51.1406ZM68.5781 52.5469C68.5781 53.9391 68.5781 55.3313 68.5781 56.7656C69.0422 56.7656 69.5062 56.7656 69.9844 56.7656C69.9844 55.3734 69.9844 53.9813 69.9844 52.5469C69.5203 52.5469 69.0563 52.5469 68.5781 52.5469Z" fill="#E81899"/>
<path d="M32.7188 42C33.1828 42 33.6469 42 34.125 42C34.125 42.232 34.125 42.4641 34.125 42.7031C34.357 42.7031 34.5891 42.7031 34.8281 42.7031C34.8281 42.9352 34.8281 43.1672 34.8281 43.4062C35.0602 43.4062 35.2922 43.4062 35.5312 43.4062C35.5312 44.1023 35.5312 44.7984 35.5312 45.5156C35.7633 45.5156 35.9953 45.5156 36.2344 45.5156C36.2344 45.7477 36.2344 45.9797 36.2344 46.2188C36.4664 46.2188 36.6984 46.2188 36.9375 46.2188C36.9375 46.6828 36.9375 47.1469 36.9375 47.625C37.1695 47.625 37.4016 47.625 37.6406 47.625C37.6406 48.5531 37.6406 49.4812 37.6406 50.4375C36.4805 50.4375 35.3203 50.4375 34.125 50.4375C34.125 50.2055 34.125 49.9734 34.125 49.7344C33.6609 49.7344 33.1969 49.7344 32.7188 49.7344C32.7188 49.9664 32.7188 50.1984 32.7188 50.4375C31.5586 50.4375 30.3984 50.4375 29.2031 50.4375C29.2031 49.5094 29.2031 48.5813 29.2031 47.625C29.4352 47.625 29.6672 47.625 29.9062 47.625C29.9062 47.1609 29.9062 46.6969 29.9062 46.2188C30.1383 46.2188 30.3703 46.2188 30.6094 46.2188C30.6094 45.9867 30.6094 45.7547 30.6094 45.5156C30.8414 45.5156 31.0734 45.5156 31.3125 45.5156C31.3125 44.8195 31.3125 44.1234 31.3125 43.4062C31.5445 43.4062 31.7766 43.4062 32.0156 43.4062C32.0156 43.1742 32.0156 42.9422 32.0156 42.7031C32.2477 42.7031 32.4797 42.7031 32.7188 42.7031C32.7188 42.4711 32.7188 42.2391 32.7188 42ZM32.0156 45.5156C32.0156 45.7477 32.0156 45.9797 32.0156 46.2188C32.2477 46.2188 32.4797 46.2188 32.7188 46.2188C32.7188 46.6828 32.7188 47.1469 32.7188 47.625C33.1828 47.625 33.6469 47.625 34.125 47.625C34.125 47.1609 34.125 46.6969 34.125 46.2188C34.357 46.2188 34.5891 46.2188 34.8281 46.2188C34.8281 45.9867 34.8281 45.7547 34.8281 45.5156C33.9 45.5156 32.9719 45.5156 32.0156 45.5156Z" fill="#E81899"/>
<path d="M32.0156 51.1406C32.9438 51.1406 33.8719 51.1406 34.8281 51.1406C34.8281 53.2289 34.8281 55.3172 34.8281 57.4688C34.5961 57.4688 34.3641 57.4688 34.125 57.4688C34.125 57.7008 34.125 57.9328 34.125 58.1719C33.4289 58.1719 32.7328 58.1719 32.0156 58.1719C32.0156 57.9398 32.0156 57.7078 32.0156 57.4688C31.7836 57.4688 31.5516 57.4688 31.3125 57.4688C31.3125 55.6125 31.3125 53.7562 31.3125 51.8438C31.5445 51.8438 31.7766 51.8438 32.0156 51.8438C32.0156 51.6117 32.0156 51.3797 32.0156 51.1406Z" fill="#E81899"/>
<path d="M69.2812 45.5156C69.5133 45.5156 69.7453 45.5156 69.9844 45.5156C69.9844 46.2117 69.9844 46.9078 69.9844 47.625C69.7523 47.625 69.5203 47.625 69.2812 47.625C69.2812 47.857 69.2812 48.0891 69.2812 48.3281C67.193 48.3281 65.1047 48.3281 62.9531 48.3281C62.9531 51.5766 62.9531 54.825 62.9531 58.1719C62.7211 58.1719 62.4891 58.1719 62.25 58.1719C62.25 58.4039 62.25 58.6359 62.25 58.875C60.6258 58.875 59.0016 58.875 57.3281 58.875C57.3281 58.643 57.3281 58.4109 57.3281 58.1719C58.7203 58.1719 60.1125 58.1719 61.5469 58.1719C61.5469 57.9398 61.5469 57.7078 61.5469 57.4688C61.7789 57.4688 62.0109 57.4688 62.25 57.4688C62.25 54.2203 62.25 50.9719 62.25 47.625C64.3383 47.625 66.4266 47.625 68.5781 47.625C68.5781 47.393 68.5781 47.1609 68.5781 46.9219C68.8102 46.9219 69.0422 46.9219 69.2812 46.9219C69.2812 46.4578 69.2812 45.9938 69.2812 45.5156Z" fill="#1B1B1B"/>
<path d="M26.3906 45.5156C26.6227 45.5156 26.8547 45.5156 27.0938 45.5156C27.0938 46.2117 27.0938 46.9078 27.0938 47.625C26.8617 47.625 26.6297 47.625 26.3906 47.625C26.3906 47.857 26.3906 48.0891 26.3906 48.3281C24.3023 48.3281 22.2141 48.3281 20.0625 48.3281C20.0625 51.5766 20.0625 54.825 20.0625 58.1719C19.8305 58.1719 19.5984 58.1719 19.3594 58.1719C19.3594 58.4039 19.3594 58.6359 19.3594 58.875C17.7352 58.875 16.1109 58.875 14.4375 58.875C14.4375 58.643 14.4375 58.4109 14.4375 58.1719C15.8297 58.1719 17.2219 58.1719 18.6562 58.1719C18.6562 57.9398 18.6562 57.7078 18.6562 57.4688C18.8883 57.4688 19.1203 57.4688 19.3594 57.4688C19.3594 54.2203 19.3594 50.9719 19.3594 47.625C21.4477 47.625 23.5359 47.625 25.6875 47.625C25.6875 47.393 25.6875 47.1609 25.6875 46.9219C25.9195 46.9219 26.1516 46.9219 26.3906 46.9219C26.3906 46.4578 26.3906 45.9938 26.3906 45.5156Z" fill="#1B1B1B"/>
<path d="M73.5 51.8438C73.732 51.8438 73.9641 51.8438 74.2031 51.8438C74.2031 53.7 74.2031 55.5563 74.2031 57.4688C74.4352 57.4688 74.6672 57.4688 74.9062 57.4688C74.9062 57.7008 74.9062 57.9328 74.9062 58.1719C74.4422 58.1719 73.9781 58.1719 73.5 58.1719C73.5 58.4039 73.5 58.6359 73.5 58.875C70.7156 58.875 67.9312 58.875 65.0625 58.875C65.0625 58.643 65.0625 58.4109 65.0625 58.1719C67.6148 58.1719 70.1672 58.1719 72.7969 58.1719C72.7969 57.9398 72.7969 57.7078 72.7969 57.4688C73.0289 57.4688 73.2609 57.4688 73.5 57.4688C73.5 55.6125 73.5 53.7563 73.5 51.8438Z" fill="#1B1B1B"/>
<path d="M53.8125 51.8438C54.0445 51.8438 54.2766 51.8438 54.5156 51.8438C54.5156 53.932 54.5156 56.0203 54.5156 58.1719C54.2836 58.1719 54.0516 58.1719 53.8125 58.1719C53.8125 58.4039 53.8125 58.6359 53.8125 58.875C51.0281 58.875 48.2437 58.875 45.375 58.875C45.375 58.643 45.375 58.4109 45.375 58.1719C47.9273 58.1719 50.4797 58.1719 53.1094 58.1719C53.1094 57.9398 53.1094 57.7078 53.1094 57.4688C53.3414 57.4688 53.5734 57.4688 53.8125 57.4688C53.8125 55.6125 53.8125 53.7563 53.8125 51.8438Z" fill="#1B1B1B"/>
<path d="M32.7188 42C33.1828 42 33.6469 42 34.125 42C34.125 42.232 34.125 42.4641 34.125 42.7031C34.357 42.7031 34.5891 42.7031 34.8281 42.7031C34.8281 43.6313 34.8281 44.5594 34.8281 45.5156C33.9 45.5156 32.9719 45.5156 32.0156 45.5156C32.0156 45.7477 32.0156 45.9797 32.0156 46.2188C31.7836 46.2188 31.5516 46.2188 31.3125 46.2188C31.3125 45.2906 31.3125 44.3625 31.3125 43.4062C31.5445 43.4062 31.7766 43.4062 32.0156 43.4062C32.0156 43.1742 32.0156 42.9422 32.0156 42.7031C32.2477 42.7031 32.4797 42.7031 32.7188 42.7031C32.7188 42.4711 32.7188 42.2391 32.7188 42Z" fill="#E81899"/>
<path d="M85.4531 51.8438C85.6852 51.8438 85.9172 51.8438 86.1562 51.8438C86.1562 53.7 86.1562 55.5563 86.1562 57.4688C86.3883 57.4688 86.6203 57.4688 86.8594 57.4688C86.8594 57.7008 86.8594 57.9328 86.8594 58.1719C86.3953 58.1719 85.9313 58.1719 85.4531 58.1719C85.4531 58.4039 85.4531 58.6359 85.4531 58.875C83.8289 58.875 82.2047 58.875 80.5312 58.875C80.5312 58.643 80.5312 58.4109 80.5312 58.1719C81.9234 58.1719 83.3156 58.1719 84.75 58.1719C84.75 57.9398 84.75 57.7078 84.75 57.4688C84.982 57.4688 85.2141 57.4688 85.4531 57.4688C85.4531 55.6125 85.4531 53.7563 85.4531 51.8438Z" fill="#1B1B1B"/>
<path d="M34.8281 51.8438C35.0602 51.8438 35.2922 51.8438 35.5312 51.8438C35.5312 53.7 35.5312 55.5563 35.5312 57.4688C35.7633 57.4688 35.9953 57.4688 36.2344 57.4688C36.2344 57.7008 36.2344 57.9328 36.2344 58.1719C35.7703 58.1719 35.3063 58.1719 34.8281 58.1719C34.8281 58.4039 34.8281 58.6359 34.8281 58.875C33.9 58.875 32.9719 58.875 32.0156 58.875C32.0156 58.643 32.0156 58.4109 32.0156 58.1719C32.7117 58.1719 33.4078 58.1719 34.125 58.1719C34.125 57.9398 34.125 57.7078 34.125 57.4688C34.357 57.4688 34.5891 57.4688 34.8281 57.4688C34.8281 55.6125 34.8281 53.7563 34.8281 51.8438Z" fill="#1B1B1B"/>
<path d="M30.6094 51.8438C30.8414 51.8438 31.0734 51.8438 31.3125 51.8438C31.3125 53.7 31.3125 55.5563 31.3125 57.4688C31.5445 57.4688 31.7766 57.4688 32.0156 57.4688C32.0156 57.7008 32.0156 57.9328 32.0156 58.1719C31.5516 58.1719 31.0875 58.1719 30.6094 58.1719C30.6094 58.4039 30.6094 58.6359 30.6094 58.875C29.6812 58.875 28.7531 58.875 27.7969 58.875C27.7969 58.643 27.7969 58.4109 27.7969 58.1719C28.493 58.1719 29.1891 58.1719 29.9062 58.1719C29.9062 57.9398 29.9062 57.7078 29.9062 57.4688C30.1383 57.4688 30.3703 57.4688 30.6094 57.4688C30.6094 55.6125 30.6094 53.7563 30.6094 51.8438Z" fill="#1B1B1B"/>
<path d="M94.5938 51.8438C94.8258 51.8438 95.0578 51.8438 95.2969 51.8438C95.2969 53.932 95.2969 56.0203 95.2969 58.1719C95.0648 58.1719 94.8328 58.1719 94.5938 58.1719C94.5938 58.4039 94.5938 58.6359 94.5938 58.875C93.6656 58.875 92.7375 58.875 91.7812 58.875C91.7812 58.643 91.7812 58.4109 91.7812 58.1719C92.4773 58.1719 93.1734 58.1719 93.8906 58.1719C93.8906 57.9398 93.8906 57.7078 93.8906 57.4688C94.1227 57.4688 94.3547 57.4688 94.5938 57.4688C94.5938 55.6125 94.5938 53.7563 94.5938 51.8438Z" fill="#1B1B1B"/>
<path d="M43.9688 55.3594C44.2008 55.3594 44.4328 55.3594 44.6719 55.3594C44.6719 56.0555 44.6719 56.7516 44.6719 57.4688C44.9039 57.4688 45.1359 57.4688 45.375 57.4688C45.375 57.7008 45.375 57.9328 45.375 58.1719C44.9109 58.1719 44.4469 58.1719 43.9688 58.1719C43.9688 58.4039 43.9688 58.6359 43.9688 58.875C43.0406 58.875 42.1125 58.875 41.1562 58.875C41.1562 58.643 41.1562 58.4109 41.1562 58.1719C41.8523 58.1719 42.5484 58.1719 43.2656 58.1719C43.2656 57.9398 43.2656 57.7078 43.2656 57.4688C43.4977 57.4688 43.7297 57.4688 43.9688 57.4688C43.9688 56.7727 43.9688 56.0766 43.9688 55.3594Z" fill="#1B1B1B"/>
<path d="M79.125 57.4688C79.5891 57.4688 80.0531 57.4688 80.5312 57.4688C80.5312 57.7008 80.5312 57.9328 80.5312 58.1719C80.2992 58.1719 80.0672 58.1719 79.8281 58.1719C79.8281 58.4039 79.8281 58.6359 79.8281 58.875C78.2039 58.875 76.5797 58.875 74.9062 58.875C74.9062 58.643 74.9062 58.4109 74.9062 58.1719C76.2984 58.1719 77.6906 58.1719 79.125 58.1719C79.125 57.9398 79.125 57.7078 79.125 57.4688Z" fill="#1B1B1B"/>
<path d="M89.6719 56.0625C89.9039 56.0625 90.1359 56.0625 90.375 56.0625C90.375 56.2945 90.375 56.5266 90.375 56.7656C90.607 56.7656 90.8391 56.7656 91.0781 56.7656C91.0781 56.9977 91.0781 57.2297 91.0781 57.4688C90.8461 57.4688 90.6141 57.4688 90.375 57.4688C90.375 57.7008 90.375 57.9328 90.375 58.1719C90.143 58.1719 89.9109 58.1719 89.6719 58.1719C89.6719 58.4039 89.6719 58.6359 89.6719 58.875C88.7437 58.875 87.8156 58.875 86.8594 58.875C86.8594 58.643 86.8594 58.4109 86.8594 58.1719C87.5555 58.1719 88.2516 58.1719 88.9688 58.1719C88.9688 57.9398 88.9688 57.7078 88.9688 57.4688C89.2008 57.4688 89.4328 57.4688 89.6719 57.4688C89.6719 57.0047 89.6719 56.5406 89.6719 56.0625Z" fill="#1B1B1B"/>
<path d="M39.0469 56.0625C39.2789 56.0625 39.5109 56.0625 39.75 56.0625C39.75 56.2945 39.75 56.5266 39.75 56.7656C39.982 56.7656 40.2141 56.7656 40.4531 56.7656C40.4531 56.9977 40.4531 57.2297 40.4531 57.4688C40.2211 57.4688 39.9891 57.4688 39.75 57.4688C39.75 57.7008 39.75 57.9328 39.75 58.1719C39.518 58.1719 39.2859 58.1719 39.0469 58.1719C39.0469 58.4039 39.0469 58.6359 39.0469 58.875C38.1187 58.875 37.1906 58.875 36.2344 58.875C36.2344 58.643 36.2344 58.4109 36.2344 58.1719C36.9305 58.1719 37.6266 58.1719 38.3438 58.1719C38.3438 57.9398 38.3438 57.7078 38.3438 57.4688C38.5758 57.4688 38.8078 57.4688 39.0469 57.4688C39.0469 57.0047 39.0469 56.5406 39.0469 56.0625Z" fill="#1B1B1B"/>
<path d="M24.9844 56.0625C25.2164 56.0625 25.4484 56.0625 25.6875 56.0625C25.6875 56.7586 25.6875 57.4547 25.6875 58.1719C25.4555 58.1719 25.2234 58.1719 24.9844 58.1719C24.9844 58.4039 24.9844 58.6359 24.9844 58.875C24.0562 58.875 23.1281 58.875 22.1719 58.875C22.1719 58.643 22.1719 58.4109 22.1719 58.1719C22.868 58.1719 23.5641 58.1719 24.2812 58.1719C24.2812 57.9398 24.2812 57.7078 24.2812 57.4688C24.5133 57.4688 24.7453 57.4688 24.9844 57.4688C24.9844 57.0047 24.9844 56.5406 24.9844 56.0625Z" fill="#1B1B1B"/>
<path d="M32.0156 49.0312C32.7117 49.0312 33.4078 49.0312 34.125 49.0312C34.125 49.2633 34.125 49.4953 34.125 49.7344C33.6609 49.7344 33.1969 49.7344 32.7188 49.7344C32.7188 49.9664 32.7188 50.1984 32.7188 50.4375C31.5586 50.4375 30.3984 50.4375 29.2031 50.4375C29.2031 50.2055 29.2031 49.9734 29.2031 49.7344C30.1313 49.7344 31.0594 49.7344 32.0156 49.7344C32.0156 49.5023 32.0156 49.2703 32.0156 49.0312Z" fill="#1B1B1B"/>
<path d="M36.9375 47.625C37.1695 47.625 37.4016 47.625 37.6406 47.625C37.6406 48.5531 37.6406 49.4813 37.6406 50.4375C36.4805 50.4375 35.3203 50.4375 34.125 50.4375C34.125 50.2055 34.125 49.9734 34.125 49.7344C35.0531 49.7344 35.9813 49.7344 36.9375 49.7344C36.9375 49.0383 36.9375 48.3422 36.9375 47.625Z" fill="#1B1B1B"/>
<path d="M77.7188 51.8438C77.9508 51.8438 78.1828 51.8438 78.4219 51.8438C78.4219 53.468 78.4219 55.0922 78.4219 56.7656C78.1898 56.7656 77.9578 56.7656 77.7188 56.7656C77.7188 55.1414 77.7188 53.5172 77.7188 51.8438Z" fill="#1B1B1B"/>
<path d="M43.9688 51.8438C44.2008 51.8438 44.4328 51.8438 44.6719 51.8438C44.6719 52.5398 44.6719 53.2359 44.6719 53.9531C44.4398 53.9531 44.2078 53.9531 43.9688 53.9531C43.9688 54.4172 43.9688 54.8812 43.9688 55.3594C43.7367 55.3594 43.5047 55.3594 43.2656 55.3594C43.2656 55.1273 43.2656 54.8953 43.2656 54.6562C43.0336 54.6562 42.8016 54.6562 42.5625 54.6562C42.5625 54.4242 42.5625 54.1922 42.5625 53.9531C42.7945 53.9531 43.0266 53.9531 43.2656 53.9531C43.2656 53.7211 43.2656 53.4891 43.2656 53.25C43.4977 53.25 43.7297 53.25 43.9688 53.25C43.9688 52.7859 43.9688 52.3219 43.9688 51.8438Z" fill="#1B1B1B"/>
<path d="M67.875 52.5469C68.107 52.5469 68.3391 52.5469 68.5781 52.5469C68.5781 53.9391 68.5781 55.3312 68.5781 56.7656C68.3461 56.7656 68.1141 56.7656 67.875 56.7656C67.875 55.3734 67.875 53.9812 67.875 52.5469Z" fill="#1B1B1B"/>
<path d="M48.1875 52.5469C48.4195 52.5469 48.6516 52.5469 48.8906 52.5469C48.8906 53.9391 48.8906 55.3312 48.8906 56.7656C48.6586 56.7656 48.4266 56.7656 48.1875 56.7656C48.1875 55.3734 48.1875 53.9812 48.1875 52.5469Z" fill="#1B1B1B"/>
<path d="M48.8906 45.5156C49.5867 45.5156 50.2828 45.5156 51 45.5156C51 45.7477 51 45.9797 51 46.2188C50.768 46.2188 50.5359 46.2188 50.2969 46.2188C50.2969 46.4508 50.2969 46.6828 50.2969 46.9219C49.8328 46.9219 49.3688 46.9219 48.8906 46.9219C48.8906 46.4578 48.8906 45.9938 48.8906 45.5156Z" fill="white"/>
<path d="M6 45.5156C6.69609 45.5156 7.39219 45.5156 8.10938 45.5156C8.10938 45.7477 8.10938 45.9797 8.10938 46.2188C7.87734 46.2188 7.64531 46.2188 7.40625 46.2188C7.40625 46.4508 7.40625 46.6828 7.40625 46.9219C6.94219 46.9219 6.47813 46.9219 6 46.9219C6 46.4578 6 45.9938 6 45.5156Z" fill="white"/>
<path d="M32.7188 42C33.1828 42 33.6469 42 34.125 42C34.125 42.4641 34.125 42.9281 34.125 43.4062C33.893 43.4062 33.6609 43.4062 33.4219 43.4062C33.4219 43.6383 33.4219 43.8703 33.4219 44.1094C33.1898 44.1094 32.9578 44.1094 32.7188 44.1094C32.7188 43.4133 32.7188 42.7172 32.7188 42Z" fill="white"/>
<path d="M24.9844 52.5469C25.2164 52.5469 25.4484 52.5469 25.6875 52.5469C25.6875 53.475 25.6875 54.4031 25.6875 55.3594C25.4555 55.3594 25.2234 55.3594 24.9844 55.3594C24.9844 54.4312 24.9844 53.5031 24.9844 52.5469Z" fill="#1B1B1B"/>
<path d="M86.8594 51.8438C87.3234 51.8438 87.7875 51.8438 88.2656 51.8438C88.2656 52.0758 88.2656 52.3078 88.2656 52.5469C88.0336 52.5469 87.8016 52.5469 87.5625 52.5469C87.5625 52.7789 87.5625 53.0109 87.5625 53.25C87.3305 53.25 87.0984 53.25 86.8594 53.25C86.8594 52.7859 86.8594 52.3219 86.8594 51.8438Z" fill="white"/>
<path d="M82.6406 51.8438C83.1047 51.8438 83.5688 51.8438 84.0469 51.8438C84.0469 52.0758 84.0469 52.3078 84.0469 52.5469C83.8148 52.5469 83.5828 52.5469 83.3438 52.5469C83.3438 52.7789 83.3438 53.0109 83.3438 53.25C83.1117 53.25 82.8797 53.25 82.6406 53.25C82.6406 52.7859 82.6406 52.3219 82.6406 51.8438Z" fill="white"/>
<path d="M74.9062 51.8438C75.3703 51.8438 75.8344 51.8438 76.3125 51.8438C76.3125 52.0758 76.3125 52.3078 76.3125 52.5469C76.0805 52.5469 75.8484 52.5469 75.6094 52.5469C75.6094 52.7789 75.6094 53.0109 75.6094 53.25C75.3773 53.25 75.1453 53.25 74.9062 53.25C74.9062 52.7859 74.9062 52.3219 74.9062 51.8438Z" fill="white"/>
<path d="M65.0625 51.8438C65.5266 51.8438 65.9906 51.8438 66.4688 51.8438C66.4688 52.0758 66.4688 52.3078 66.4688 52.5469C66.2367 52.5469 66.0047 52.5469 65.7656 52.5469C65.7656 52.7789 65.7656 53.0109 65.7656 53.25C65.5336 53.25 65.3016 53.25 65.0625 53.25C65.0625 52.7859 65.0625 52.3219 65.0625 51.8438Z" fill="white"/>
<path d="M45.375 51.8438C45.8391 51.8438 46.3031 51.8438 46.7812 51.8438C46.7812 52.0758 46.7812 52.3078 46.7812 52.5469C46.5492 52.5469 46.3172 52.5469 46.0781 52.5469C46.0781 52.7789 46.0781 53.0109 46.0781 53.25C45.8461 53.25 45.6141 53.25 45.375 53.25C45.375 52.7859 45.375 52.3219 45.375 51.8438Z" fill="white"/>
<path d="M36.2344 51.8438C36.6984 51.8438 37.1625 51.8438 37.6406 51.8438C37.6406 52.0758 37.6406 52.3078 37.6406 52.5469C37.4086 52.5469 37.1766 52.5469 36.9375 52.5469C36.9375 52.7789 36.9375 53.0109 36.9375 53.25C36.7055 53.25 36.4734 53.25 36.2344 53.25C36.2344 52.7859 36.2344 52.3219 36.2344 51.8438Z" fill="white"/>
<path d="M32.0156 51.8438C32.4797 51.8438 32.9438 51.8438 33.4219 51.8438C33.4219 52.0758 33.4219 52.3078 33.4219 52.5469C33.1898 52.5469 32.9578 52.5469 32.7188 52.5469C32.7188 52.7789 32.7188 53.0109 32.7188 53.25C32.4867 53.25 32.2547 53.25 32.0156 53.25C32.0156 52.7859 32.0156 52.3219 32.0156 51.8438Z" fill="white"/>
<path d="M22.1719 51.8438C22.6359 51.8438 23.1 51.8438 23.5781 51.8438C23.5781 52.0758 23.5781 52.3078 23.5781 52.5469C23.3461 52.5469 23.1141 52.5469 22.875 52.5469C22.875 52.7789 22.875 53.0109 22.875 53.25C22.643 53.25 22.4109 53.25 22.1719 53.25C22.1719 52.7859 22.1719 52.3219 22.1719 51.8438Z" fill="white"/>
<path d="M34.8281 43.4062C35.0602 43.4062 35.2922 43.4062 35.5312 43.4062C35.5312 44.1023 35.5312 44.7984 35.5312 45.5156C35.2992 45.5156 35.0672 45.5156 34.8281 45.5156C34.8281 44.8195 34.8281 44.1234 34.8281 43.4062Z" fill="#1B1B1B"/>
<path d="M80.5312 55.3594C80.7633 55.3594 80.9953 55.3594 81.2344 55.3594C81.2344 55.8234 81.2344 56.2875 81.2344 56.7656C81.0023 56.7656 80.7703 56.7656 80.5312 56.7656C80.5312 56.3016 80.5312 55.8375 80.5312 55.3594Z" fill="#1B1B1B"/>
<path d="M36.2344 46.2188C36.4664 46.2188 36.6984 46.2188 36.9375 46.2188C36.9375 46.6828 36.9375 47.1469 36.9375 47.625C36.7055 47.625 36.4734 47.625 36.2344 47.625C36.2344 47.1609 36.2344 46.6969 36.2344 46.2188Z" fill="#1B1B1B"/>
<path d="M32.0156 46.2188C32.2477 46.2188 32.4797 46.2188 32.7188 46.2188C32.7188 46.6828 32.7188 47.1469 32.7188 47.625C32.4867 47.625 32.2547 47.625 32.0156 47.625C32.0156 47.1609 32.0156 46.6969 32.0156 46.2188Z" fill="#1B1B1B"/>
<path d="M48.8906 45.5156C49.1227 45.5156 49.3547 45.5156 49.5938 45.5156C49.5938 45.9797 49.5938 46.4438 49.5938 46.9219C49.3617 46.9219 49.1297 46.9219 48.8906 46.9219C48.8906 46.4578 48.8906 45.9938 48.8906 45.5156Z" fill="#E81899"/>
<path d="M6 45.5156C6.23203 45.5156 6.46406 45.5156 6.70312 45.5156C6.70312 45.9797 6.70312 46.4438 6.70312 46.9219C6.47109 46.9219 6.23906 46.9219 6 46.9219C6 46.4578 6 45.9938 6 45.5156Z" fill="#E81899"/>
<path d="M32.7188 42C33.1828 42 33.6469 42 34.125 42C34.125 42.232 34.125 42.4641 34.125 42.7031C33.6609 42.7031 33.1969 42.7031 32.7188 42.7031C32.7188 42.4711 32.7188 42.2391 32.7188 42Z" fill="#1B1B1B"/>
<path d="M91.0781 57.4688C91.3102 57.4688 91.5422 57.4688 91.7812 57.4688C91.7812 57.7008 91.7812 57.9328 91.7812 58.1719C91.5492 58.1719 91.3172 58.1719 91.0781 58.1719C91.0781 57.9398 91.0781 57.7078 91.0781 57.4688Z" fill="#1B1B1B"/>
<path d="M64.3594 57.4688C64.5914 57.4688 64.8234 57.4688 65.0625 57.4688C65.0625 57.7008 65.0625 57.9328 65.0625 58.1719C64.8305 58.1719 64.5984 58.1719 64.3594 58.1719C64.3594 57.9398 64.3594 57.7078 64.3594 57.4688Z" fill="#1B1B1B"/>
<path d="M56.625 57.4688C56.857 57.4688 57.0891 57.4688 57.3281 57.4688C57.3281 57.7008 57.3281 57.9328 57.3281 58.1719C57.0961 58.1719 56.8641 58.1719 56.625 58.1719C56.625 57.9398 56.625 57.7078 56.625 57.4688Z" fill="#1B1B1B"/>
<path d="M40.4531 57.4688C40.6852 57.4688 40.9172 57.4688 41.1562 57.4688C41.1562 57.7008 41.1562 57.9328 41.1562 58.1719C40.9242 58.1719 40.6922 58.1719 40.4531 58.1719C40.4531 57.9398 40.4531 57.7078 40.4531 57.4688Z" fill="#1B1B1B"/>
<path d="M27.0938 57.4688C27.3258 57.4688 27.5578 57.4688 27.7969 57.4688C27.7969 57.7008 27.7969 57.9328 27.7969 58.1719C27.5648 58.1719 27.3328 58.1719 27.0938 58.1719C27.0938 57.9398 27.0938 57.7078 27.0938 57.4688Z" fill="#1B1B1B"/>
<path d="M21.4688 57.4688C21.7008 57.4688 21.9328 57.4688 22.1719 57.4688C22.1719 57.7008 22.1719 57.9328 22.1719 58.1719C21.9398 58.1719 21.7078 58.1719 21.4688 58.1719C21.4688 57.9398 21.4688 57.7078 21.4688 57.4688Z" fill="#1B1B1B"/>
<path d="M13.7344 57.4688C13.9664 57.4688 14.1984 57.4688 14.4375 57.4688C14.4375 57.7008 14.4375 57.9328 14.4375 58.1719C14.2055 58.1719 13.9734 58.1719 13.7344 58.1719C13.7344 57.9398 13.7344 57.7078 13.7344 57.4688Z" fill="#1B1B1B"/>
<path d="M79.8281 54.6562C80.0602 54.6562 80.2922 54.6562 80.5312 54.6562C80.5312 54.8883 80.5312 55.1203 80.5312 55.3594C80.2992 55.3594 80.0672 55.3594 79.8281 55.3594C79.8281 55.1273 79.8281 54.8953 79.8281 54.6562Z" fill="#1B1B1B"/>
<path d="M90.375 52.5469C90.607 52.5469 90.8391 52.5469 91.0781 52.5469C91.0781 52.7789 91.0781 53.0109 91.0781 53.25C90.8461 53.25 90.6141 53.25 90.375 53.25C90.375 53.018 90.375 52.7859 90.375 52.5469Z" fill="#1B1B1B"/>
<path d="M89.6719 51.8438C89.9039 51.8438 90.1359 51.8438 90.375 51.8438C90.375 52.0758 90.375 52.3078 90.375 52.5469C90.143 52.5469 89.9109 52.5469 89.6719 52.5469C89.6719 52.3148 89.6719 52.0828 89.6719 51.8438Z" fill="#1B1B1B"/>
<path d="M39.0469 51.8438C39.2789 51.8438 39.5109 51.8438 39.75 51.8438C39.75 52.0758 39.75 52.3078 39.75 52.5469C39.518 52.5469 39.2859 52.5469 39.0469 52.5469C39.0469 52.3148 39.0469 52.0828 39.0469 51.8438Z" fill="#1B1B1B"/>
<path d="M93.8906 51.1406C94.1227 51.1406 94.3547 51.1406 94.5938 51.1406C94.5938 51.3727 94.5938 51.6047 94.5938 51.8438C94.3617 51.8438 94.1297 51.8438 93.8906 51.8438C93.8906 51.6117 93.8906 51.3797 93.8906 51.1406Z" fill="#1B1B1B"/>
<path d="M88.9688 51.1406C89.2008 51.1406 89.4328 51.1406 89.6719 51.1406C89.6719 51.3727 89.6719 51.6047 89.6719 51.8438C89.4398 51.8438 89.2078 51.8438 88.9688 51.8438C88.9688 51.6117 88.9688 51.3797 88.9688 51.1406Z" fill="#1B1B1B"/>
<path d="M84.75 51.1406C84.982 51.1406 85.2141 51.1406 85.4531 51.1406C85.4531 51.3727 85.4531 51.6047 85.4531 51.8438C85.2211 51.8438 84.9891 51.8438 84.75 51.8438C84.75 51.6117 84.75 51.3797 84.75 51.1406Z" fill="#1B1B1B"/>
<path d="M77.0156 51.1406C77.2477 51.1406 77.4797 51.1406 77.7188 51.1406C77.7188 51.3727 77.7188 51.6047 77.7188 51.8438C77.4867 51.8438 77.2547 51.8438 77.0156 51.8438C77.0156 51.6117 77.0156 51.3797 77.0156 51.1406Z" fill="#1B1B1B"/>
<path d="M72.7969 51.1406C73.0289 51.1406 73.2609 51.1406 73.5 51.1406C73.5 51.3727 73.5 51.6047 73.5 51.8438C73.268 51.8438 73.0359 51.8438 72.7969 51.8438C72.7969 51.6117 72.7969 51.3797 72.7969 51.1406Z" fill="#1B1B1B"/>
<path d="M53.1094 51.1406C53.3414 51.1406 53.5734 51.1406 53.8125 51.1406C53.8125 51.3727 53.8125 51.6047 53.8125 51.8438C53.5805 51.8438 53.3484 51.8438 53.1094 51.8438C53.1094 51.6117 53.1094 51.3797 53.1094 51.1406Z" fill="#1B1B1B"/>
<path d="M43.2656 51.1406C43.4977 51.1406 43.7297 51.1406 43.9688 51.1406C43.9688 51.3727 43.9688 51.6047 43.9688 51.8438C43.7367 51.8438 43.5047 51.8438 43.2656 51.8438C43.2656 51.6117 43.2656 51.3797 43.2656 51.1406Z" fill="#1B1B1B"/>
<path d="M38.3438 51.1406C38.5758 51.1406 38.8078 51.1406 39.0469 51.1406C39.0469 51.3727 39.0469 51.6047 39.0469 51.8438C38.8148 51.8438 38.5828 51.8438 38.3438 51.8438C38.3438 51.6117 38.3438 51.3797 38.3438 51.1406Z" fill="#1B1B1B"/>
<path d="M34.125 51.1406C34.357 51.1406 34.5891 51.1406 34.8281 51.1406C34.8281 51.3727 34.8281 51.6047 34.8281 51.8438C34.5961 51.8438 34.3641 51.8438 34.125 51.8438C34.125 51.6117 34.125 51.3797 34.125 51.1406Z" fill="#1B1B1B"/>
<path d="M29.9062 51.1406C30.1383 51.1406 30.3703 51.1406 30.6094 51.1406C30.6094 51.3727 30.6094 51.6047 30.6094 51.8438C30.3773 51.8438 30.1453 51.8438 29.9062 51.8438C29.9062 51.6117 29.9062 51.3797 29.9062 51.1406Z" fill="#1B1B1B"/>
<path d="M32.7188 47.625C32.9508 47.625 33.1828 47.625 33.4219 47.625C33.4219 47.857 33.4219 48.0891 33.4219 48.3281C33.1898 48.3281 32.9578 48.3281 32.7188 48.3281C32.7188 48.0961 32.7188 47.8641 32.7188 47.625Z" fill="#1B1B1B"/>
<path d="M35.5312 45.5156C35.7633 45.5156 35.9953 45.5156 36.2344 45.5156C36.2344 45.7477 36.2344 45.9797 36.2344 46.2188C36.0023 46.2188 35.7703 46.2188 35.5312 46.2188C35.5312 45.9867 35.5312 45.7547 35.5312 45.5156Z" fill="#1B1B1B"/>
<path d="M31.3125 45.5156C31.5445 45.5156 31.7766 45.5156 32.0156 45.5156C32.0156 45.7477 32.0156 45.9797 32.0156 46.2188C31.7836 46.2188 31.5516 46.2188 31.3125 46.2188C31.3125 45.9867 31.3125 45.7547 31.3125 45.5156Z" fill="#1B1B1B"/>
<path d="M68.5781 44.8125C68.8102 44.8125 69.0422 44.8125 69.2812 44.8125C69.2812 45.0445 69.2812 45.2766 69.2812 45.5156C69.0492 45.5156 68.8172 45.5156 68.5781 45.5156C68.5781 45.2836 68.5781 45.0516 68.5781 44.8125Z" fill="#1B1B1B"/>
<path d="M25.6875 44.8125C25.9195 44.8125 26.1516 44.8125 26.3906 44.8125C26.3906 45.0445 26.3906 45.2766 26.3906 45.5156C26.1586 45.5156 25.9266 45.5156 25.6875 45.5156C25.6875 45.2836 25.6875 45.0516 25.6875 44.8125Z" fill="#1B1B1B"/>
<path d="M34.125 42.7031C34.357 42.7031 34.5891 42.7031 34.8281 42.7031C34.8281 42.9352 34.8281 43.1672 34.8281 43.4062C34.5961 43.4062 34.3641 43.4062 34.125 43.4062C34.125 43.1742 34.125 42.9422 34.125 42.7031Z" fill="#1B1B1B"/>
<path d="M32.7188 42C32.9508 42 33.1828 42 33.4219 42C33.4219 42.232 33.4219 42.4641 33.4219 42.7031C33.1898 42.7031 32.9578 42.7031 32.7188 42.7031C32.7188 42.4711 32.7188 42.2391 32.7188 42Z" fill="#E81899"/>
</g>
<defs>
<clipPath id="clip0_1193_8661">
<rect width="90" height="16.875" fill="white" transform="translate(6 42)"/>
</clipPath>
</defs>
</svg>
