<svg width="99" height="32" viewBox="0 0 99 32" fill="none" xmlns="http://www.w3.org/2000/svg">
<path d="M11.0875 13.3043L3.01746 0L19.027 16L11.0875 13.3043Z" fill="url(#paint0_linear_7954_6610)"/>
<path d="M0 15.9999L11.0876 13.3042L19.027 15.9999H0Z" fill="url(#paint1_linear_7954_6610)"/>
<path d="M0 16H19.027L11.0876 18.6964L0 16Z" fill="url(#paint2_linear_7954_6610)"/>
<path d="M11.0868 18.6964L19.027 16L3.01746 32L11.0868 18.6964Z" fill="url(#paint3_linear_7954_6610)"/>
<path d="M40.7563 10.5244C40.1872 10.2082 39.5242 10.0607 38.7769 10.0607C37.8399 10.0607 37.1252 10.2389 36.6193 10.5972C36.1135 10.9555 35.7245 11.3963 35.462 11.9347H35.0941C34.8316 11.3867 34.4311 10.9345 33.9156 10.5876C33.3887 10.2408 32.6739 10.0607 31.8538 10.0607C31.0337 10.0607 30.3803 10.2178 29.8955 10.534C29.4107 10.8502 29.0639 11.2085 28.8435 11.6185H28.4756V10.2619H26.1168V21.8068H28.5063V14.9144C28.5063 14.0099 28.7266 13.3144 29.1808 12.8315C29.633 12.3467 30.2327 12.1052 30.9801 12.1052C31.6737 12.1052 32.2217 12.295 32.6011 12.6839C32.9805 13.0729 33.1702 13.6094 33.1702 14.3146V21.8068H35.5808V14.9144C35.5808 14.0099 35.8011 13.3144 36.2533 12.8315C36.7056 12.3467 37.3053 12.1052 38.0526 12.1052C38.7463 12.1052 39.2943 12.295 39.6737 12.6839C40.0531 13.0729 40.2428 13.6094 40.2428 14.3146V21.8183H42.6418V14.1249C42.6418 13.23 42.4636 12.4827 42.1264 11.883C41.7892 11.2832 41.3274 10.831 40.7583 10.5244H40.7563Z" fill="#FDFCF9"/>
<path d="M54.5949 19.1127V14.3567C54.5949 12.9464 54.1637 11.8619 53.311 11.0935C52.4583 10.3366 51.2799 9.94572 49.7968 9.94572C48.8291 9.94572 48.0071 10.1028 47.323 10.419C46.6389 10.7352 46.0909 11.1452 45.6809 11.6511C45.2708 12.1666 44.9757 12.7357 44.786 13.3565L47.0164 14.0827C47.1525 13.4504 47.4476 12.9464 47.8787 12.5575C48.3098 12.1685 48.9211 11.9673 49.7623 11.9673C50.6035 11.9673 51.2243 12.1666 51.6248 12.5785C52.0349 12.9886 52.2361 13.5251 52.2361 14.1996V14.9469H48.7429C47.9113 14.9469 47.164 15.083 46.501 15.3474C45.8476 15.6099 45.3225 16.0008 44.9431 16.5258C44.5637 17.0528 44.374 17.7254 44.374 18.5052C44.374 19.2851 44.5637 19.9462 44.9431 20.4942C45.3225 21.0422 45.838 21.4523 46.4799 21.7359C47.1218 22.0195 47.8595 22.1575 48.6797 22.1575C49.4691 22.167 50.0995 22.0425 50.5958 21.8317C51.0806 21.5999 51.437 21.3373 51.69 21.0212C51.9429 20.705 52.1211 20.431 52.2476 20.2011H52.5944V20.2739C52.5944 20.7587 52.763 21.1361 53.1003 21.4216C53.4375 21.7052 53.8801 21.8432 54.4262 21.8432H56.2255V19.8216H55.2464C54.8152 19.8216 54.5929 19.5898 54.5929 19.1165L54.5949 19.1127ZM52.238 17.049C52.238 18.0166 51.9429 18.7754 51.3546 19.333C50.7664 19.8906 49.9865 20.1646 49.0284 20.1646C48.3347 20.1646 47.7771 20.0075 47.3862 19.7009C46.9762 19.3963 46.7769 18.9747 46.7769 18.4382C46.7769 17.9016 46.9666 17.5012 47.3556 17.2272C47.7446 16.9531 48.26 16.8171 48.8923 16.8171H52.2399V17.049H52.238Z" fill="#FDFCF9"/>
<path d="M67.1822 20.797C66.5097 20.2394 65.5401 19.9654 64.2677 19.9654H60.7535C60.4067 19.9654 60.1231 19.8926 59.9008 19.7335C59.6804 19.5764 59.5636 19.333 59.5636 19.0073C59.5636 18.6815 59.6574 18.4382 59.8471 18.2926C59.9909 18.1814 60.1461 18.1009 60.3224 18.053C60.9106 18.2676 61.5583 18.3769 62.2788 18.3769C63.5626 18.3769 64.605 18.03 65.404 17.3249C66.2031 16.6312 66.6035 15.6406 66.6035 14.3567C66.6035 13.9678 66.5614 13.6209 66.456 13.3048C66.3621 12.9886 66.2356 12.7146 66.0766 12.4846V12.1589H68.056V10.2542H64.1202C63.8673 10.1814 63.5837 10.1067 63.2579 10.0339C62.9322 9.96106 62.5949 9.92848 62.2366 9.92848C61.3839 9.92848 60.6155 10.0856 59.943 10.4018C59.2589 10.7179 58.7224 11.1912 58.3334 11.8006C57.9444 12.4118 57.7432 13.1783 57.7432 14.0847V14.1785C57.7432 15.0945 57.9329 15.8629 58.3334 16.4837C58.479 16.7155 58.6438 16.9225 58.8277 17.1103V17.39C58.502 17.5376 58.2069 17.7694 57.9329 18.0952C57.6589 18.4209 57.5228 18.8636 57.5228 19.4116C57.5228 19.927 57.6378 20.3371 57.8601 20.6533C58.0804 20.9694 58.3123 21.2013 58.5652 21.3584V21.6842C58.2912 21.8106 58.0172 22.0425 57.724 22.3893C57.4289 22.7361 57.2814 23.2094 57.2814 23.8207C57.2814 24.3151 57.3964 24.7788 57.6493 25.2003C57.9022 25.6219 58.2912 25.9572 58.8067 26.2102C59.3221 26.4631 59.9966 26.5896 60.8167 26.5896H64.2697C65.5439 26.5896 66.5116 26.2945 67.1842 25.7062C67.8471 25.116 68.1844 24.3285 68.1844 23.3282V23.1385C68.1844 22.1383 67.8586 21.3603 67.1842 20.8027L67.1822 20.797ZM60.6251 12.4827C61.0562 12.0612 61.6139 11.8619 62.2768 11.8619C62.9398 11.8619 63.4974 12.0727 63.9286 12.4827C64.3597 12.8928 64.5801 13.4504 64.5801 14.1345C64.5801 14.8185 64.3597 15.3761 63.9286 15.7862C63.4974 16.2078 62.9494 16.407 62.2768 16.407C61.6043 16.407 61.0562 16.1963 60.6251 15.7862C60.194 15.3761 59.9736 14.8185 59.9736 14.1345C59.9736 13.4504 60.194 12.8928 60.6251 12.4827ZM65.634 24.2806C65.3504 24.5009 64.9595 24.6178 64.4651 24.6178H60.9509C60.4565 24.6178 60.056 24.5029 59.782 24.2806C59.4984 24.0602 59.3604 23.7536 59.3604 23.3129C59.3604 22.8722 59.4965 22.5445 59.782 22.3242C60.0656 22.1038 60.4565 21.9984 60.9509 21.9984H64.4651C64.9595 21.9984 65.3485 22.1038 65.634 22.3242C65.9176 22.5445 66.0555 22.8933 66.0555 23.3129C66.0555 23.7326 65.9195 24.0487 65.634 24.2806Z" fill="#FDFCF9"/>
<path d="M78.568 10.6509C77.7997 10.1776 76.9374 9.94572 76.0099 9.94572C74.9254 9.94572 74.0938 10.145 73.5151 10.557C72.9249 10.9575 72.4938 11.4193 72.2102 11.9347H71.8519V10.2715H69.5678V26.5206H71.894V20.2585H72.2619C72.4401 20.5747 72.6835 20.8794 72.9882 21.163C73.2928 21.4581 73.6933 21.6899 74.1877 21.8777C74.682 22.0674 75.2933 22.1613 76.0195 22.1613C76.945 22.1613 77.8092 21.9294 78.5872 21.4561C79.3652 20.9828 79.9975 20.3084 80.4612 19.425C80.9249 18.5416 81.1549 17.4782 81.1549 16.225V15.8782C81.1549 14.625 80.9134 13.5634 80.4401 12.6782C79.9668 11.7948 79.346 11.1203 78.5661 10.647L78.568 10.6509ZM78.7903 16.156C78.7903 17.4092 78.4646 18.3654 77.8226 19.0399C77.1807 19.7143 76.3395 20.0497 75.3182 20.0497C74.2969 20.0497 73.5074 19.7124 72.8444 19.0399C72.191 18.3654 71.8653 17.4092 71.8653 16.156V15.9452C71.8653 14.7131 72.191 13.757 72.8444 13.0825C73.5074 12.408 74.3084 12.0727 75.3182 12.0727C76.328 12.0727 77.1597 12.4099 77.8131 13.0825C78.4646 13.7551 78.7922 14.7131 78.7922 15.9452V16.156H78.7903Z" fill="#FDFCF9"/>
<path d="M84.1461 5.41016C83.6728 5.41016 83.2838 5.56728 82.9676 5.87387C82.6515 6.16896 82.4943 6.56752 82.4943 7.05231C82.4943 7.5371 82.6515 7.92608 82.9676 8.23076C83.2838 8.54692 83.6824 8.69447 84.1461 8.69447C84.6098 8.69447 85.0199 8.53734 85.336 8.23076C85.6407 7.93567 85.7997 7.5371 85.7997 7.05231C85.7997 6.56752 85.6426 6.17854 85.336 5.87387C85.0199 5.5577 84.6098 5.41016 84.1461 5.41016Z" fill="#FDFCF9"/>
<path d="M82.9369 21.8279L85.3359 21.8164V10.2619H82.9369V21.8279Z" fill="#FDFCF9"/>
<path d="M98.1648 15.7977C98.1648 14.6288 97.9329 13.5979 97.4711 12.7242C97.0074 11.8504 96.3559 11.1663 95.5243 10.672C94.6831 10.1776 93.7557 9.93614 92.6194 9.93614C91.4831 9.93614 90.4924 10.1776 89.6301 10.672C88.7775 11.1663 88.1049 11.8619 87.6201 12.7548C87.1353 13.6593 86.8939 14.7131 86.8939 15.9127V16.1963C86.8939 17.3862 87.1353 18.4382 87.6297 19.333C88.124 20.2279 88.7985 20.9215 89.6704 21.4159C90.5442 21.9103 91.554 22.1517 92.7228 22.1517C93.7652 22.1517 94.6179 21.9831 95.2809 21.6573C95.9554 21.3201 96.4919 20.9215 96.902 20.4367C97.3025 19.952 97.6186 19.4997 97.839 19.059L95.8596 18.0281C95.6182 18.5646 95.2598 19.0284 94.8076 19.4384C94.3439 19.8389 93.6713 20.0497 92.7669 20.0497C91.7992 20.0497 90.9983 19.745 90.3564 19.1452C89.7145 18.5455 89.3772 17.7349 89.3466 16.7136H98.1648V15.7977ZM89.3676 14.8607C89.4941 13.9869 89.8409 13.3028 90.41 12.8085C90.9791 12.3141 91.7149 12.0727 92.6098 12.0727C93.5046 12.0727 94.2404 12.3141 94.798 12.8085C95.3557 13.3028 95.6603 13.9869 95.7236 14.8607H89.3676Z" fill="#FDFCF9"/>
<defs>
<linearGradient id="paint0_linear_7954_6610" x1="11.0222" y1="0" x2="11.0222" y2="13.227" gradientUnits="userSpaceOnUse">
<stop offset="0.45" stop-color="#F9F7F4"/>
<stop offset="1" stop-color="#D4CEC4"/>
</linearGradient>
<linearGradient id="paint1_linear_7954_6610" x1="9.51386" y1="12.7463" x2="9.51386" y2="15.4427" gradientUnits="userSpaceOnUse">
<stop stop-color="#E3DED7"/>
<stop offset="0.8" stop-color="#FBF9F6"/>
</linearGradient>
<linearGradient id="paint2_linear_7954_6610" x1="0" y1="17.3482" x2="19.027" y2="17.3482" gradientUnits="userSpaceOnUse">
<stop offset="0.3" stop-color="#D4CEC4"/>
<stop offset="0.58" stop-color="#D4CEC4"/>
</linearGradient>
<linearGradient id="paint3_linear_7954_6610" x1="11.0222" y1="32" x2="11.0222" y2="16" gradientUnits="userSpaceOnUse">
<stop offset="0.3" stop-color="#D4CDC3"/>
<stop offset="0.95" stop-color="#FBF9F6"/>
</linearGradient>
</defs>
</svg>