<svg width="512" height="512" viewBox="0 0 512 512" fill="none" xmlns="http://www.w3.org/2000/svg">
<rect width="512" height="512" fill="url(#paint0_radial_786_298)"/>
<path d="M387.84 162.773C386.987 153.813 382.293 145.493 375.04 139.947C367.787 134.613 358.4 132.48 349.44 134.4C345.387 135.253 341.12 137.387 332.8 141.44C325.973 144.853 322.56 146.56 319.147 148.053C305.067 153.6 289.707 154.667 274.987 151.253C271.36 150.4 267.733 149.12 260.48 146.773L248.747 142.933C221.653 133.973 208.213 129.493 194.773 131.84C181.973 134.187 170.453 141.013 162.56 151.253C154.027 161.92 151.68 176.213 146.987 204.16L125.867 331.52C124.373 340.907 123.52 345.174 123.947 349.227C124.8 358.187 129.493 366.507 136.747 372.053C144 377.387 153.387 379.52 162.133 377.6C166.187 376.747 170.453 374.613 179.2 370.133C185.813 366.933 189.013 365.227 192.427 363.947C206.507 358.4 221.867 357.333 236.587 360.747C240.213 361.6 243.84 362.88 251.093 365.227L262.827 369.067C285.013 376.32 298.027 380.8 309.547 380.8C312.107 380.8 314.453 380.8 317.013 380.16C329.813 377.813 341.333 370.987 349.227 360.747C357.76 350.08 360.107 336 364.8 307.84L385.92 180.693C387.413 171.307 388.267 166.827 387.84 162.773Z" fill="white"/>
<defs>
<radialGradient id="paint0_radial_786_298" cx="0" cy="0" r="1" gradientUnits="userSpaceOnUse" gradientTransform="translate(256) rotate(90) scale(512)">
<stop stop-color="#99EEFF"/>
<stop offset="0.526042" stop-color="#BB33FF"/>
<stop offset="0.864583" stop-color="#2200CC"/>
<stop offset="1" stop-color="#00AACC"/>
</radialGradient>
</defs>
</svg>
