<?xml version="1.0" encoding="utf-8"?>
<!-- Generator: Adobe Illustrator 28.0.0, SVG Export Plug-In . SVG Version: 6.00 Build 0)  -->
<svg version="1.1" id="Capa_1" xmlns="http://www.w3.org/2000/svg" xmlns:xlink="http://www.w3.org/1999/xlink" x="0px" y="0px"
	 viewBox="0 0 1310.76 310.87" style="enable-background:new 0 0 1310.76 310.87;" xml:space="preserve">
<style type="text/css">
	.st0{fill:#FFFFFF;}
	.st1{fill:url(#SVGID_1_);}
	.st2{fill:url(#SVGID_00000034090157159293030730000011506888099898153361_);}
</style>
<g>
	<g>
		<path class="st0" d="M454.29,107.97c-5.17,3.03-9.24,7.53-12.25,13.45v-17.66h-27.55v138.02h28.83v-79.6
			c0-10.88,2.94-19.26,8.8-25.13c5.87-5.87,13.56-8.8,23.09-8.8h11.99v-26.28h-8.42C469.25,101.97,461.09,103.97,454.29,107.97z"/>
		<path class="st0" d="M605.09,110c-10.8-6.2-23-9.31-36.61-9.31c-13.43,0-25.6,3.11-36.48,9.31
			c-10.88,6.21-19.56,14.71-26.02,25.52c-6.46,10.8-9.69,23.18-9.69,37.12c0,13.78,3.23,26.11,9.69,37
			c6.46,10.88,15.18,19.48,26.15,25.76c10.97,6.3,23.09,9.44,36.36,9.44c13.27,0,25.34-3.1,36.23-9.31
			c10.88-6.21,19.56-14.76,26.02-25.64c6.46-10.88,9.69-23.3,9.69-37.25c0-13.94-3.19-26.32-9.57-37.12
			C624.48,124.72,615.89,116.22,605.09,110z M605.09,195.99c-3.66,6.89-8.63,12.29-14.92,16.2c-6.29,3.91-13.52,5.87-21.69,5.87
			c-8,0-15.18-1.95-21.56-5.87c-6.38-3.91-11.4-9.31-15.05-16.2c-3.66-6.89-5.49-14.67-5.49-23.35c0-8.67,1.83-16.41,5.49-23.22
			c3.65-6.8,8.68-12.16,15.05-16.07c6.38-3.91,13.56-5.87,21.56-5.87c8.16,0,15.39,1.95,21.69,5.87
			c6.29,3.91,11.27,9.27,14.92,16.07c3.66,6.81,5.49,14.54,5.49,23.22C610.58,181.32,608.75,189.1,605.09,195.99z"/>
		<path class="st0" d="M775.95,110.13c-10.46-6.29-22.24-9.44-35.34-9.44c-10.89,0-20.58,2.21-29.09,6.63
			c-6.18,3.22-11.44,7.36-15.82,12.36V48.65h-28.83v193.13h27.55v-17.76c4.42,5.93,10.05,10.7,16.97,14.19
			c8.76,4.42,18.5,6.63,29.21,6.63c13.26,0,25.09-3.19,35.46-9.57c10.37-6.38,18.58-15.01,24.62-25.89
			c6.04-10.88,9.06-23.13,9.06-36.74c0-13.61-3.02-25.85-9.06-36.74C794.66,125.02,786.41,116.43,775.95,110.13z M774.42,195.99
			c-3.66,6.89-8.63,12.29-14.92,16.2c-6.29,3.91-13.52,5.87-21.69,5.87c-8,0-15.18-1.95-21.56-5.87c-6.38-3.91-11.4-9.31-15.05-16.2
			c-3.66-6.89-5.49-14.67-5.49-23.35c0-8.67,1.83-16.41,5.49-23.22c3.65-6.8,8.68-12.16,15.05-16.07
			c6.38-3.91,13.56-5.87,21.56-5.87c8.16,0,15.39,1.95,21.69,5.87c6.29,3.91,11.27,9.27,14.92,16.07
			c3.65,6.81,5.49,14.54,5.49,23.22C779.91,181.32,778.07,189.1,774.42,195.99z"/>
		<rect x="836.21" y="103.76" class="st0" width="28.83" height="138.02"/>
		<path class="st0" d="M991.69,107.33c-7.83-4.42-16.84-6.63-27.05-6.63c-9.86,0-18.54,2.26-26.02,6.76
			c-5.42,3.26-9.73,7.66-13.01,13.1v-16.8h-27.55v138.02h28.83V160.4c0-6.81,1.28-12.67,3.83-17.61c2.55-4.93,6.17-8.71,10.85-11.35
			c4.68-2.63,9.99-3.95,15.95-3.95c5.95,0,11.27,1.32,15.95,3.95c4.68,2.64,8.29,6.38,10.84,11.23c2.55,4.85,3.83,10.76,3.83,17.73
			v81.38h28.57v-89.04c0-10.21-2.21-19.22-6.63-27.05C1005.63,117.87,999.51,111.75,991.69,107.33z"/>
		<path class="st0" d="M1149.69,110c-10.8-6.2-23-9.31-36.61-9.31c-13.43,0-25.6,3.11-36.48,9.31
			c-10.88,6.21-19.56,14.71-26.02,25.52c-6.46,10.8-9.69,23.18-9.69,37.12c0,13.78,3.23,26.11,9.69,37
			c6.46,10.88,15.18,19.48,26.15,25.76c10.97,6.3,23.09,9.44,36.36,9.44c13.27,0,25.34-3.1,36.23-9.31
			c10.88-6.21,19.56-14.76,26.02-25.64c6.46-10.88,9.69-23.3,9.69-37.25c0-13.94-3.19-26.32-9.57-37.12
			C1169.08,124.72,1160.49,116.22,1149.69,110z M1149.69,195.99c-3.66,6.89-8.63,12.29-14.92,16.2c-6.29,3.91-13.52,5.87-21.69,5.87
			c-8,0-15.18-1.95-21.56-5.87c-6.38-3.91-11.4-9.31-15.05-16.2c-3.66-6.89-5.49-14.67-5.49-23.35c0-8.67,1.83-16.41,5.49-23.22
			c3.65-6.8,8.68-12.16,15.05-16.07c6.38-3.91,13.56-5.87,21.56-5.87c8.16,0,15.39,1.95,21.69,5.87
			c6.29,3.91,11.27,9.27,14.92,16.07c3.66,6.81,5.49,14.54,5.49,23.22C1155.17,181.32,1153.35,189.1,1149.69,195.99z"/>
		<path class="st0" d="M1275.29,163.71l-22.45-6.63c-2.9-0.85-5.7-1.92-8.42-3.19c-2.72-1.28-4.93-2.98-6.63-5.11
			c-1.7-2.13-2.55-4.8-2.55-8.04c0-4.76,1.87-8.63,5.61-11.61c3.74-2.98,8.76-4.47,15.05-4.47c7.31,0,13.91,1.96,19.78,5.87
			c5.87,3.92,10.16,9.18,12.88,15.82l22.2-10.46c-4.08-11.06-11.06-19.68-20.92-25.9c-9.86-6.2-21.09-9.31-33.67-9.31
			c-9.36,0-17.78,1.71-25.26,5.11c-7.48,3.4-13.35,8.21-17.6,14.41c-4.26,6.21-6.38,13.48-6.38,21.81c0,9.18,2.94,17.23,8.8,24.11
			c5.87,6.89,14.75,12.03,26.66,15.43l21.69,6.13c2.89,0.68,5.74,1.7,8.54,3.06c2.81,1.36,5.14,3.11,7.02,5.23
			c1.87,2.13,2.81,4.89,2.81,8.29c0,5.28-2.13,9.44-6.38,12.5c-4.26,3.06-9.78,4.59-16.58,4.59c-8,0-15.27-2.3-21.82-6.89
			s-11.7-10.8-15.43-18.62l-22.2,10.46c4.25,11.73,11.7,21.09,22.33,28.07c10.63,6.98,23,10.46,37.12,10.46
			c10.21,0,19.13-1.75,26.79-5.23c7.66-3.48,13.65-8.33,17.99-14.54c4.34-6.2,6.51-13.39,6.51-21.56c0-9.52-3.06-17.73-9.18-24.62
			C1295.45,172,1286.69,166.94,1275.29,163.71z"/>
		<path class="st0" d="M850.63,48.01L850.63,48.01c-10.55,0-19.11,8.56-19.11,19.11c0,10.55,8.56,19.11,19.11,19.11h0
			c10.55,0,19.11-8.56,19.11-19.11C869.74,56.57,861.18,48.01,850.63,48.01z"/>
	</g>
	<g>
		<linearGradient id="SVGID_1_" gradientUnits="userSpaceOnUse" x1="61.8238" y1="-51.8764" x2="258.297" y2="182.2712">
			<stop  offset="0" style="stop-color:#00FFCF"/>
			<stop  offset="0.2514" style="stop-color:#5D5DFF"/>
			<stop  offset="0.6117" style="stop-color:#FD85D5"/>
			<stop  offset="1" style="stop-color:#FDE634"/>
		</linearGradient>
		<path class="st1" d="M18.49,69.08c12.14,20.97,29.62,38.46,50.59,50.59h0c20.31,11.76,43.9,18.49,69.06,18.49h172.72V69.08H138.08
			c-22.56-0.03-42.6-10.87-55.18-27.63C74.24,29.92,69.1,15.6,69.08,0.08c0-0.03,0-0.06,0-0.08H0v0.02
			c0,24.69,6.49,47.86,17.83,67.92C18.05,68.32,18.27,68.7,18.49,69.08z"/>
		
			<linearGradient id="SVGID_00000031886096635240985030000017542941924825669036_" gradientUnits="userSpaceOnUse" x1="249.0654" y1="362.7431" x2="52.5913" y2="128.5943">
			<stop  offset="0" style="stop-color:#00FFCF"/>
			<stop  offset="0.2514" style="stop-color:#5D5DFF"/>
			<stop  offset="0.6117" style="stop-color:#FD85D5"/>
			<stop  offset="1" style="stop-color:#FDE634"/>
		</linearGradient>
		<path style="fill:url(#SVGID_00000031886096635240985030000017542941924825669036_);" d="M293.05,242.93
			c-0.22-0.38-0.43-0.76-0.65-1.15c-12.14-20.97-29.62-38.46-50.59-50.59h0c-20.31-11.76-43.9-18.48-69.06-18.49H0.02v69.08h172.79
			c22.56,0.03,42.6,10.87,55.18,27.63c8.66,11.53,13.8,25.85,13.82,41.37c0,0.03,0,0.06,0,0.08h69.08v-0.02
			C310.89,286.16,304.4,262.99,293.05,242.93z"/>
	</g>
</g>
</svg>
