<?xml version="1.0" encoding="utf-8"?>
<!-- Generator: Adobe Illustrator 28.0.0, SVG Export Plug-In . SVG Version: 6.00 Build 0)  -->
<svg version="1.1" id="Capa_1" xmlns="http://www.w3.org/2000/svg" xmlns:xlink="http://www.w3.org/1999/xlink" x="0px" y="0px"
	 viewBox="0 0 1009.95 1009.87" style="enable-background:new 0 0 1009.95 1009.87;" xml:space="preserve">
<style type="text/css">
	.st0{fill:url(#SVGID_1_);}
	.st1{fill:url(#SVGID_00000007411999171688558080000011601564077756438700_);}
</style>
<g>
	<linearGradient id="SVGID_1_" gradientUnits="userSpaceOnUse" x1="200.8391" y1="-168.524" x2="839.0958" y2="592.1208">
		<stop  offset="0" style="stop-color:#00FFCF"/>
		<stop  offset="0.2514" style="stop-color:#5D5DFF"/>
		<stop  offset="0.6117" style="stop-color:#FD85D5"/>
		<stop  offset="1" style="stop-color:#FDE634"/>
	</linearGradient>
	<path class="st0" d="M60.06,224.41c39.43,68.12,96.22,124.94,164.34,164.34h0.01c65.99,38.2,142.63,60.05,224.35,60.07h561.1
		V224.41h-561.3c-73.3-0.11-138.38-35.33-179.27-89.76C241.18,97.2,224.48,50.69,224.41,0.26c0-0.09-0.01-0.2-0.01-0.26H0v0.05
		c0,80.21,21.08,155.47,57.94,220.63C58.64,221.94,59.34,223.16,60.06,224.41z"/>
	
		<linearGradient id="SVGID_00000067946096968133824510000011366752892097964689_" gradientUnits="userSpaceOnUse" x1="809.1064" y1="1178.3964" x2="170.8463" y2="417.7476">
		<stop  offset="0" style="stop-color:#00FFCF"/>
		<stop  offset="0.2514" style="stop-color:#5D5DFF"/>
		<stop  offset="0.6117" style="stop-color:#FD85D5"/>
		<stop  offset="1" style="stop-color:#FDE634"/>
	</linearGradient>
	<path style="fill:url(#SVGID_00000067946096968133824510000011366752892097964689_);" d="M952.01,789.18
		c-0.7-1.25-1.4-2.48-2.12-3.73c-39.43-68.12-96.22-124.94-164.34-164.34h-0.01c-65.99-38.2-142.63-60.05-224.35-60.07H0.07v224.41
		h561.31c73.3,0.1,138.38,35.33,179.27,89.76c28.12,37.45,44.82,83.96,44.88,134.39c0,0.09,0.01,0.2,0.01,0.26h224.4v-0.05
		C1009.95,929.61,988.86,854.34,952.01,789.18z"/>
</g>
</svg>
