<svg id="svg" version="1.1" xmlns="http://www.w3.org/2000/svg" width="auto" height="auto" viewBox="0, 0, 400,56.75006873797086" class="h-8 w-full">
  <g id="svgg">
    <path id="path0" d="M392.833 25.500 L 392.833 46.500 396.417 46.500 L 400.000 46.500 400.000 25.500 L 400.000 4.500 396.417 4.500 L 392.833 4.500 392.833 25.500 M68.333 5.698 C 60.761 6.973,56.354 11.432,56.342 17.833 C 56.333 22.404,58.165 25.068,62.858 27.304 C 64.978 28.314,66.701 28.833,71.333 29.856 C 77.738 31.269,79.925 32.731,79.897 35.579 C 79.863 39.080,77.005 40.815,71.250 40.827 C 66.356 40.838,62.955 39.877,59.383 37.474 C 57.874 36.460,57.996 36.431,57.333 37.958 C 57.024 38.669,56.484 39.877,56.131 40.644 C 55.397 42.243,55.383 42.190,56.827 43.148 C 64.044 47.937,77.043 48.287,82.999 43.853 C 83.676 43.349,85.500 41.498,85.500 41.315 C 85.500 41.246,85.596 41.091,85.714 40.970 C 87.693 38.933,87.909 31.772,86.048 29.863 C 85.930 29.742,85.833 29.583,85.833 29.511 C 85.833 29.259,84.202 27.722,83.298 27.123 C 81.180 25.717,78.404 24.692,73.250 23.414 C 64.262 21.184,62.251 19.312,64.217 15.000 C 65.538 12.104,72.065 10.499,76.500 11.981 C 76.729 12.058,77.217 12.212,77.583 12.324 C 78.900 12.726,81.410 13.949,81.964 14.458 C 82.088 14.573,82.255 14.667,82.333 14.667 C 82.412 14.667,82.575 14.763,82.696 14.880 C 82.818 14.998,83.152 15.260,83.440 15.462 L 83.964 15.830 84.259 15.207 C 84.421 14.864,84.992 13.665,85.527 12.542 C 86.660 10.164,86.628 10.335,86.042 9.814 C 83.849 7.862,80.474 6.524,75.597 5.672 C 74.411 5.465,69.616 5.482,68.333 5.698 M193.000 26.167 L 193.000 46.500 196.750 46.500 L 200.500 46.500 200.500 38.083 L 200.500 29.667 206.243 29.667 C 213.832 29.667,215.657 29.414,218.477 27.972 C 220.579 26.897,221.961 25.636,223.055 23.796 C 225.163 20.251,224.910 13.752,222.550 10.817 C 221.344 9.318,218.914 7.336,218.278 7.332 C 218.171 7.332,217.890 7.230,217.653 7.107 C 215.688 6.081,212.659 5.833,202.097 5.833 L 193.000 5.833 193.000 26.167 M99.000 8.864 C 96.458 9.752,94.759 10.354,94.292 10.532 L 93.833 10.707 93.833 14.187 L 93.833 17.667 91.083 17.667 L 88.333 17.667 88.333 20.417 L 88.333 23.167 91.083 23.167 L 93.833 23.167 93.839 30.875 C 93.845 38.813,93.858 38.997,94.553 41.211 C 95.955 45.678,101.722 47.951,107.875 46.462 L 108.667 46.270 108.667 43.299 L 108.667 40.327 108.208 40.430 C 107.956 40.486,107.487 40.600,107.167 40.682 C 105.578 41.089,103.425 40.663,102.419 39.742 C 101.126 38.557,101.113 38.469,101.036 30.375 L 100.968 23.167 104.817 23.167 L 108.667 23.167 108.667 20.417 L 108.667 17.667 104.833 17.667 L 101.000 17.667 101.000 13.000 C 101.000 7.615,101.227 8.086,99.000 8.864 M286.250 9.514 C 284.417 10.142,282.898 10.659,282.875 10.661 C 282.852 10.664,282.833 12.242,282.833 14.167 L 282.833 17.667 280.000 17.667 L 277.167 17.667 277.167 20.417 L 277.167 23.167 279.989 23.167 L 282.811 23.167 282.872 31.292 C 282.941 40.385,282.915 40.180,284.261 42.606 C 286.257 46.204,291.420 47.782,296.875 46.462 L 297.667 46.270 297.667 43.291 C 297.667 40.533,297.645 40.317,297.375 40.391 C 294.423 41.201,291.936 40.737,290.909 39.185 C 290.103 37.968,290.012 37.020,290.006 29.792 L 290.000 23.167 293.833 23.167 L 297.667 23.167 297.667 20.417 L 297.667 17.667 293.833 17.667 L 290.000 17.667 290.000 13.000 C 290.000 9.368,289.954 8.338,289.792 8.352 C 289.677 8.363,288.083 8.885,286.250 9.514 M212.333 12.062 C 216.639 12.970,218.514 16.595,216.743 20.589 C 215.612 23.138,213.215 23.833,205.542 23.833 L 200.500 23.833 200.500 17.833 L 200.500 11.833 205.875 11.833 C 209.789 11.833,211.545 11.895,212.333 12.062 M122.750 17.021 C 121.209 17.135,119.951 17.444,118.710 18.011 C 118.322 18.188,117.961 18.333,117.909 18.333 C 117.627 18.333,115.601 19.882,114.648 20.825 C 108.642 26.774,109.132 38.890,115.583 43.938 C 120.645 47.899,131.501 47.776,136.326 43.702 L 136.901 43.216 136.430 42.150 C 136.172 41.563,135.864 40.858,135.747 40.583 C 134.635 37.977,134.793 38.115,133.750 38.833 C 133.350 39.108,132.973 39.333,132.912 39.333 C 132.851 39.333,132.602 39.469,132.359 39.634 C 132.116 39.799,131.317 40.131,130.583 40.370 C 123.319 42.745,117.667 39.666,117.667 33.336 L 117.667 32.500 127.526 32.500 L 137.385 32.500 137.277 30.244 C 136.842 21.183,131.550 16.365,122.750 17.021 M152.667 17.014 C 148.649 17.293,145.122 19.352,142.844 22.750 C 138.583 29.107,139.676 39.367,145.078 43.706 C 149.827 47.520,158.147 47.966,164.463 44.744 C 166.917 43.492,166.906 43.606,165.005 39.417 C 164.922 39.233,164.807 38.915,164.749 38.708 C 164.648 38.346,164.000 38.156,164.000 38.489 C 164.000 38.574,163.850 38.692,163.668 38.750 C 163.485 38.808,163.241 38.947,163.126 39.060 C 162.839 39.340,160.898 40.255,160.083 40.494 C 152.764 42.641,147.952 39.929,147.449 33.375 L 147.382 32.500 157.274 32.500 L 167.167 32.500 167.165 31.458 C 167.152 21.834,161.687 16.389,152.667 17.014 M260.500 16.956 C 255.326 17.145,251.037 19.822,248.866 24.219 C 246.336 29.346,246.708 36.882,249.706 41.219 C 255.098 49.017,269.417 48.743,274.151 40.750 C 274.981 39.348,275.127 39.049,275.456 38.080 C 276.478 35.075,276.734 32.209,276.253 29.152 C 276.026 27.706,275.899 27.126,275.566 26.000 C 275.391 25.410,274.144 22.960,273.884 22.696 C 273.764 22.575,273.667 22.417,273.667 22.344 C 273.667 22.271,273.160 21.689,272.542 21.050 C 269.603 18.016,265.907 16.759,260.500 16.956 M312.333 17.023 C 310.865 17.140,310.452 17.211,308.815 17.633 C 298.178 20.372,295.943 38.540,305.500 44.578 C 311.956 48.657,321.483 47.328,325.769 41.750 C 329.189 37.299,329.678 29.610,326.904 23.917 C 325.093 20.201,320.833 17.398,316.500 17.072 C 314.288 16.905,313.882 16.900,312.333 17.023 M344.833 17.018 C 339.549 17.400,335.429 20.175,333.203 24.852 C 332.704 25.901,332.524 26.463,332.139 28.167 C 331.269 32.026,332.493 39.925,334.155 41.167 C 334.216 41.212,334.447 41.512,334.668 41.833 C 335.880 43.592,338.676 45.498,341.000 46.150 C 342.567 46.590,342.965 46.664,344.667 46.829 C 346.421 46.999,349.338 46.780,351.083 46.347 C 351.450 46.256,351.975 46.134,352.250 46.076 C 353.583 45.794,357.333 43.688,357.333 43.221 C 357.333 43.076,356.457 40.825,355.885 39.500 C 355.252 38.037,355.206 37.988,354.804 38.383 C 352.084 41.054,346.474 41.916,343.195 40.168 C 339.336 38.111,338.011 31.848,340.349 26.715 C 342.370 22.280,349.093 21.479,354.167 25.070 C 354.579 25.362,355.002 25.653,355.107 25.716 C 355.233 25.792,355.595 25.083,356.174 23.624 C 356.656 22.410,357.114 21.345,357.192 21.258 C 357.510 20.902,357.297 20.400,356.618 19.904 C 353.559 17.670,349.515 16.679,344.833 17.018 M372.333 16.956 C 362.466 17.316,356.514 27.191,359.851 37.667 C 362.640 46.426,373.968 49.770,382.565 44.373 C 387.224 41.448,389.518 33.663,387.683 27.000 C 387.357 25.816,387.265 25.579,386.631 24.281 C 384.127 19.157,379.333 16.701,372.333 16.956 M184.500 17.249 C 182.184 17.891,180.224 19.314,179.031 21.218 C 178.619 21.876,178.511 21.964,178.430 21.708 C 178.345 21.440,178.017 18.486,178.004 17.875 C 178.001 17.715,177.182 17.667,174.478 17.667 L 170.956 17.667 171.070 18.292 C 171.348 19.811,171.483 25.363,171.491 35.542 L 171.500 46.500 175.167 46.500 L 178.833 46.500 178.833 38.091 C 178.833 28.953,178.852 28.734,179.785 26.892 C 181.289 23.922,185.234 22.618,188.996 23.848 C 190.126 24.218,189.985 24.612,190.110 20.734 L 190.217 17.416 189.439 17.208 C 188.467 16.948,185.498 16.973,184.500 17.249 M241.280 17.261 C 239.178 17.834,236.888 19.492,235.917 21.143 C 235.343 22.119,235.167 22.204,235.167 21.506 C 235.167 21.234,235.081 20.259,234.976 19.339 L 234.786 17.667 231.320 17.667 L 227.854 17.667 227.925 18.208 C 228.262 20.809,228.333 23.616,228.333 34.340 L 228.333 46.500 232.000 46.500 L 235.667 46.500 235.669 38.042 C 235.671 29.073,235.687 28.857,236.490 27.102 C 237.896 24.029,242.255 22.526,245.899 23.857 C 246.912 24.227,246.770 24.666,246.905 20.746 L 247.021 17.408 246.258 17.204 C 245.281 16.943,242.322 16.976,241.280 17.261 M125.968 22.348 C 128.558 22.947,130.321 24.952,130.754 27.792 L 130.863 28.500 124.340 28.500 L 117.818 28.500 117.926 27.875 C 118.573 24.137,122.383 21.518,125.968 22.348 M155.924 22.394 C 157.680 22.862,158.982 23.832,159.678 25.191 C 159.952 25.726,160.667 28.026,160.667 28.372 C 160.667 28.442,157.733 28.500,154.148 28.500 L 147.630 28.500 147.744 27.889 C 148.485 23.943,152.247 21.415,155.924 22.394 M263.241 22.831 C 267.668 23.556,270.061 28.933,268.744 35.197 C 267.644 40.427,262.910 42.720,258.147 40.329 C 253.286 37.889,253.136 27.046,257.917 23.700 C 259.125 22.854,261.258 22.506,263.241 22.831 M315.552 22.827 C 317.563 23.157,319.524 24.640,320.353 26.460 C 321.766 29.561,321.614 35.256,320.046 38.000 C 317.716 42.078,310.988 42.333,308.360 38.443 C 306.553 35.767,306.239 29.686,307.750 26.599 C 309.202 23.630,312.050 22.254,315.552 22.827 M376.750 23.335 C 378.133 23.996,380.000 25.905,380.000 26.657 C 380.000 26.757,380.066 26.968,380.146 27.127 C 381.329 29.469,381.177 34.635,379.837 37.575 C 377.654 42.367,369.833 42.430,367.417 37.676 C 365.916 34.724,365.950 29.173,367.487 26.200 C 369.079 23.121,373.465 21.765,376.750 23.335 " stroke="none" fill="#fcfcfc" fill-rule="evenodd" class="fill-gray-800 dark:fill-white"></path>
    <path id="path1" d="M39.417 0.205 C 38.622 0.400,32.408 2.365,30.750 2.947 C 30.108 3.172,28.721 3.647,27.667 4.003 C 26.613 4.359,24.662 5.032,23.333 5.499 C 22.004 5.966,19.792 6.722,18.417 7.180 C 11.699 9.418,11.014 10.421,12.167 16.333 C 12.247 16.746,12.399 17.721,12.505 18.500 C 12.782 20.550,12.807 20.640,13.191 21.024 C 13.672 21.506,16.620 20.893,18.917 19.834 C 19.100 19.749,20.825 19.153,22.750 18.509 C 24.675 17.865,26.700 17.186,27.250 17.000 C 27.800 16.813,30.751 15.836,33.807 14.827 C 42.082 12.096,42.641 11.599,42.156 7.417 C 41.921 5.393,41.671 3.518,41.499 2.500 C 41.414 1.996,41.300 1.227,41.246 0.792 C 41.135 -0.093,40.918 -0.162,39.417 0.205 M27.083 20.241 C 26.442 20.457,25.242 20.836,24.417 21.083 C 23.592 21.330,22.467 21.676,21.917 21.853 C 21.367 22.030,20.692 22.239,20.417 22.319 C 13.635 24.289,13.833 24.005,13.833 31.738 C 13.833 36.716,13.851 37.029,14.125 36.921 C 14.472 36.785,15.304 36.519,17.000 36.002 C 17.688 35.793,18.550 35.528,18.917 35.412 C 19.283 35.297,20.146 35.035,20.833 34.829 C 21.521 34.623,22.608 34.273,23.250 34.050 C 23.892 33.827,25.017 33.446,25.750 33.204 C 26.743 32.876,27.272 32.586,27.822 32.065 L 28.560 31.367 28.686 29.559 C 28.756 28.564,28.817 25.969,28.823 23.792 C 28.835 19.247,29.005 19.594,27.083 20.241 M25.917 36.511 C 25.092 36.780,23.667 37.237,22.750 37.525 C 21.833 37.814,20.221 38.328,19.167 38.667 C 18.112 39.006,16.725 39.441,16.083 39.635 C 13.058 40.549,10.755 41.265,9.000 41.835 C 7.946 42.178,6.120 42.770,4.942 43.151 C 0.253 44.667,-0.563 45.950,0.173 50.647 C 0.562 53.134,0.941 55.437,1.102 56.292 C 1.206 56.842,2.481 56.799,4.314 56.185 C 5.864 55.665,10.028 54.361,11.917 53.804 C 12.558 53.615,13.233 53.402,13.417 53.330 C 13.870 53.154,14.521 52.943,16.000 52.495 C 16.688 52.287,18.112 51.837,19.167 51.497 C 24.201 49.870,25.322 49.513,26.250 49.237 C 30.561 47.956,31.109 46.599,30.013 39.917 C 29.923 39.367,29.769 38.429,29.672 37.833 C 29.331 35.756,28.800 35.569,25.917 36.511 " stroke="none" fill="#544cd4" fill-rule="evenodd" class="fill-[#5d5fef]"></path>
  </g>
</svg>