<svg width="500" height="500" viewBox="0 0 500 500" fill="none" xmlns="http://www.w3.org/2000/svg">
<rect width="500" height="500" fill="#18191A"/>
<path fill-rule="evenodd" clip-rule="evenodd" d="M381.991 139.195C381.991 139.195 379.837 136.465 368.651 136.527C357.466 136.589 232.584 136.527 232.584 136.527L260.598 84.5025C260.598 84.5025 304.214 84.4969 321.961 84.5025C340.701 84.5084 352.659 90.5367 364.648 109.849C373.747 124.5 376.227 128.829 381.991 139.195Z" fill="url(#paint0_linear_363_16)"/>
<path fill-rule="evenodd" clip-rule="evenodd" d="M212.576 84.5026C212.576 84.5026 149.176 196.509 141.874 209.897C134.571 223.285 129.828 227.071 129.868 239.245C129.908 251.419 132.403 270.067 159.216 269.926C159.216 269.926 290.892 270.06 303.285 269.926C313.774 269.812 316.787 271.741 316.626 275.262C316.464 278.784 311.815 285.521 305.954 295.272C303.51 299.336 300.675 304.067 297.949 308.612C294.139 314.967 291.268 320.623 283.276 320.617C283.276 320.617 133.66 320.704 117.863 320.617C98.886 320.513 91.4798 317.12 79.177 295.272C66.8743 273.424 64.6538 271.201 64.5039 255.252C64.3541 239.303 68.4632 235.288 79.1778 216.567C89.8924 197.846 125.91 134.595 139.207 112.517C152.503 90.439 167.197 84.4965 185.897 84.5026H212.576Z" fill="url(#paint1_linear_363_16)"/>
<path fill-rule="evenodd" clip-rule="evenodd" d="M117.863 360.646C117.863 360.646 120.015 363.376 131.202 363.314C142.39 363.252 267.268 363.314 267.268 363.314L239.254 415.329C239.254 415.329 195.638 415.335 177.891 415.329C159.152 415.323 147.195 409.296 135.204 389.988C126.107 375.339 123.627 371.011 117.863 360.646Z" fill="url(#paint2_linear_363_16)"/>
<path fill-rule="evenodd" clip-rule="evenodd" d="M287.278 415.329C287.278 415.329 350.678 303.344 357.979 289.957C365.28 276.571 370.024 272.787 369.985 260.616C369.947 248.444 367.451 229.799 340.638 229.94C340.638 229.94 208.961 229.805 196.567 229.94C186.08 230.053 183.066 228.124 183.228 224.604C183.39 221.084 188.039 214.346 193.899 204.599C196.342 200.535 199.179 195.804 201.903 191.261C205.715 184.905 208.586 179.251 216.577 179.257C216.577 179.257 366.194 179.17 381.991 179.257C400.968 179.361 408.374 182.753 420.676 204.599C432.977 226.444 435.199 228.664 435.35 244.61C435.501 260.556 431.391 264.571 420.676 283.289C409.96 302.007 373.944 365.247 360.646 387.321C347.349 409.396 332.656 415.335 313.958 415.329H287.278Z" fill="url(#paint3_linear_363_16)"/>
<defs>
<linearGradient id="paint0_linear_363_16" x1="148.796" y1="84.6016" x2="358.171" y2="415.352" gradientUnits="userSpaceOnUse">
<stop stop-color="#FF92D6"/>
<stop offset="1" stop-color="#E81899"/>
</linearGradient>
<linearGradient id="paint1_linear_363_16" x1="148.796" y1="84.6016" x2="358.171" y2="415.352" gradientUnits="userSpaceOnUse">
<stop stop-color="#FF92D6"/>
<stop offset="1" stop-color="#E81899"/>
</linearGradient>
<linearGradient id="paint2_linear_363_16" x1="148.796" y1="84.6016" x2="358.171" y2="415.352" gradientUnits="userSpaceOnUse">
<stop stop-color="#FF92D6"/>
<stop offset="1" stop-color="#E81899"/>
</linearGradient>
<linearGradient id="paint3_linear_363_16" x1="148.796" y1="84.6016" x2="358.171" y2="415.352" gradientUnits="userSpaceOnUse">
<stop stop-color="#FF92D6"/>
<stop offset="1" stop-color="#E81899"/>
</linearGradient>
</defs>
</svg>
