<svg width="348" height="60" viewBox="0 0 348 60" fill="none" xmlns="http://www.w3.org/2000/svg">
<path d="M91.3151 37.4939C87.153 34.0151 82.9934 30.5388 79.951 25.9527C80.6043 24.868 81.3674 23.833 81.8911 22.6934C85.4248 14.9777 83.8762 7.65597 80.0956 0.518811C79.7889 -0.0572498 79.3475 -0.0123622 78.8163 0.0125755C77.2577 0.0898823 75.7116 0.374172 74.1904 0.613574C68.4472 1.51881 63.2327 3.58365 59.5619 8.43403C58.4946 8.20211 57.3973 8.05747 56.3749 7.70336C55.5245 7.4041 54.4198 7.74824 53.8287 6.75822C52.7589 4.39911 51.2676 2.40659 48.941 1.13477C48.5345 0.912826 48.0856 0.663449 47.6741 1.02505C47.2626 1.38914 47.4621 1.86046 47.6567 2.28689C47.8786 2.77068 48.1105 3.24949 48.4721 4.01757C47.9584 3.71582 47.704 3.58615 47.4696 3.42904C45.4746 2.10983 43.3973 0.947738 41.0382 0.404097C40.5295 0.289384 39.8661 0.0774133 39.4946 0.648486C39.113 1.23452 39.6317 1.69088 39.9459 2.1248C40.7015 3.17218 41.7315 3.9652 42.9833 5.11233C41.2252 4.4839 39.8936 3.83053 38.4222 3.71582C38.133 3.69338 37.7838 3.62604 37.6143 3.97268C37.4497 4.30684 37.6716 4.55871 37.8936 4.7632C38.6616 5.47393 39.4397 6.16969 40.2801 6.92779C39.6192 7.12231 39.0906 7.27941 38.5619 7.43403V7.43652C36.0207 7.88291 33.709 9.10984 31.1953 9.64351C26.921 4.29188 21.1105 2.05996 14.517 1.41407C13.5419 1.54874 12.3723 0.523798 11.6142 1.90784C9.78131 5.01507 8.62171 8.34675 8.23019 11.9403C7.96834 13.858 7.90849 15.7807 8.12545 17.7059C8.41473 21.5986 9.96835 24.9577 12.4147 27.9478C12.2402 29.4141 11.1005 30.2794 10.2377 31.2769C7.35488 34.6061 4.103 37.5637 0.75138 40.4066C0.0506311 41.0026 -0.423185 41.5587 0.556866 42.3019C3.79378 47.1622 8.08306 50.8854 13.0631 53.8555C17.7738 56.666 22.9285 58.3293 28.1853 59.7283C28.4447 59.8381 28.5993 59.7633 28.7065 59.6037C28.7514 59.5363 28.7863 59.459 28.8212 59.3717C30.335 55.4366 31.8512 51.4989 33.3649 47.5637C33.6691 47.1273 34.1679 47.1622 34.5993 47.0874C37.6891 46.5563 40.1005 45.0799 40.7963 41.873C39.2851 41.7333 29.6841 27.9378 24.0083 37.3168C23.8512 37.5787 24.9833 39.6386 29.2153 41.6261C29.4571 41.7408 25.4372 42.045 24.4472 42.1124C24.3524 42.1174 24.2601 42.1273 24.1679 42.1423C21.5494 42.4939 18.9334 42.8405 16.315 43.1922C15.4297 43.1972 14.5419 43.2071 13.6566 43.2121C13.4147 43.1822 13.1778 43.1573 12.9384 43.1298C12.8811 43.1248 12.8237 43.1149 12.7664 43.1099C16.1005 36.0126 20.6342 30.0774 28.4148 27.4565C35.4197 25.0974 41.4946 26.6859 46.4721 32.1647C47.1804 32.9403 47.4272 32.6211 47.9285 32.075C50.6043 29.1597 53.5145 26.5089 57.5844 25.8355C62.9335 24.9453 67.8412 26.1996 72.2078 29.4465C76.0183 32.2769 78.9185 35.8929 81.1804 40.045C81.3724 40.4041 81.5545 40.7732 81.4397 41.2046C81.4023 41.2196 81.3699 41.2371 81.34 41.257C81.1205 41.3892 80.931 41.6036 80.6392 41.5213C78.5944 40.9403 76.4996 41.3169 74.4323 41.1747C73.5445 41.1223 72.6592 41.075 71.7714 41.0226C70.148 40.9627 67.6467 40.858 67.1854 40.1622C71.0033 36.7857 68.8811 32.6011 68.8811 32.6011C62.4971 28.7832 54.709 42.2894 54.709 42.2894C56.2502 45.1523 59.9834 46.0775 62.0532 46.1124C63.5943 49.8904 65.118 53.676 66.6841 57.4391C66.921 58.0051 66.8936 58.7732 67.6617 59.0276C68.1829 58.8505 68.6991 58.6535 69.2278 58.5014C76.9634 56.2645 83.9235 52.681 89.4797 46.7184C91.3674 44.6909 93.2303 42.6136 94.33 40.0001C93.3225 39.1622 92.3176 38.3293 91.3151 37.4939ZM21.7738 16.3642C19.4197 18.9752 17.2327 21.7183 14.9534 24.3966C15.0681 23.7532 14.8437 23.1323 14.7265 22.5138C13.9808 18.5812 14.128 14.666 14.9334 10.7657C15.4122 8.43902 16.1753 8.14974 18.118 9.5662C19.7639 10.7657 21.0232 12.3742 22.4172 13.8355C22.7115 14.1398 22.9135 14.5687 23.325 14.7083C22.7938 15.2445 22.2801 15.8006 21.7738 16.3642ZM49.6991 4.51632C49.6841 4.5238 49.6766 4.53378 49.6666 4.54126C49.6542 4.5238 49.6442 4.50136 49.6317 4.4839C49.6567 4.49637 49.6766 4.50635 49.6991 4.51632ZM45.4148 5.62106C45.4023 5.63602 45.3898 5.65098 45.3749 5.66345C45.3624 5.646 45.3499 5.62605 45.3375 5.6061C45.3624 5.60859 45.3898 5.61607 45.4148 5.62106ZM42.3275 6.51632C42.3275 6.50136 42.325 6.4864 42.325 6.47393C42.3375 6.47892 42.3499 6.48141 42.3624 6.48889C42.3499 6.49637 42.3399 6.50635 42.3275 6.51632ZM45.118 26.5737L46.7165 19.6136H42.6991L49.0232 10.0899L47.4946 16.8231H51.6342L45.118 26.5737ZM77.2627 21.8879C76.6667 21.1323 75.9884 20.4415 75.3624 19.7158C73.3325 17.3492 71.2178 15.0525 68.8786 12.9827C69.5245 12.6111 69.9659 12.0051 70.4447 11.4465C71.5744 10.1348 72.7714 8.89039 74.2153 7.9253C75.5345 7.04251 76.2552 7.29188 76.6617 8.82804C77.2402 11.0375 77.5769 13.2869 77.6542 15.5862C77.729 17.7059 77.2427 19.7782 77.2627 21.8879Z" fill="#F64489"/>
<path d="M47.552 54.0502C47.4672 53.9879 47.3749 53.933 47.2802 53.8881C45.8463 53.1899 44.6094 52.2397 43.6892 50.9156C42.749 49.5639 43.0807 48.4268 44.6468 47.9929C47.3425 47.2472 50.0882 47.2846 52.7839 47.9904C54.2777 48.3794 54.5869 49.4667 53.7316 50.8158C52.8338 52.2323 51.5345 53.2073 50.0408 53.8308C49.9236 53.8806 49.8113 53.938 49.7066 54.0103L49.6094 54.0777C48.9859 54.5066 48.1605 54.4966 47.552 54.0502Z" fill="#F64489"/>
<path d="M107.733 34.2551V19.3596H143.943V34.2551H137.278V24.7089H128.307V48.7803H121.724V24.7089H114.399V34.2551H107.733ZM142.097 48.7803L155.346 19.3596H165.51L178.759 48.7803H171.6L168.802 42.567H152.054L149.256 48.7803H142.097ZM154.441 37.2178H166.415L160.695 24.5031H160.161L154.441 37.2178ZM182.057 48.7803V19.3596H188.722L209.543 40.5096V19.3596H216.127V48.7803H209.461L188.64 27.5892V48.7803H182.057ZM233.77 48.986C230.78 48.986 228.421 48.602 226.693 47.8339C224.964 47.0384 223.73 45.8451 222.989 44.254C222.249 42.663 221.878 40.6605 221.878 38.2465V19.3596H228.462V38.2465C228.462 40.3313 228.942 41.7577 229.902 42.5258C230.89 43.2665 232.549 43.6368 234.881 43.6368H242.822C245.154 43.6368 246.8 43.2665 247.76 42.5258C248.748 41.7577 249.241 40.3313 249.241 38.2465V19.3596H255.825V38.2465C255.825 40.6605 255.455 42.663 254.714 44.254C253.973 45.8451 252.739 47.0384 251.011 47.8339C249.283 48.602 246.923 48.986 243.933 48.986H233.77ZM261.579 48.7803V19.4419H268.163V31.4159H277.956L287.626 19.4419H295.814L283.717 34.0905L295.814 48.7803H287.626L277.915 36.7651H268.163V48.7803H261.579ZM299.111 48.7803V19.3596H305.694V48.7803H299.111ZM308.978 48.7803L320.006 34.0905L308.978 19.3596H317.002L325.849 31.4159H329.634L338.481 19.3596H346.505L335.477 34.0905L346.505 48.7803H338.44L329.634 36.7651H325.849L317.043 48.7803H308.978Z" fill="white"/>
</svg>