<svg width="400" height="400" viewBox="0 0 400 400" fill="none" xmlns="http://www.w3.org/2000/svg">
<g clip-path="url(#clip0_5_295)">
<path d="M400 0H0V400H400V0Z" fill="#ED5AD5"/>
<path d="M83.61 151.04L83.35 151.02V210.54C83.35 277.81 138.91 332.5 207.94 333.78C229.31 334.18 249.52 329.24 267.34 320.28C268.8 319.55 270.23 318.79 271.64 318.01C319.88 291.29 340.16 230.36 319.74 164.69C314.68 148.41 306.08 155.72 294.36 142.06C289.93 136.89 310.95 143.22 302.09 144.82C257.99 152.78 277.11 201.45 277.05 218.87C276.95 250.19 251.83 275.93 214.39 275.93C174.23 275.93 142.28 250.37 142.28 216.28V155.96L142.47 155.94C142.37 149.7 143.52 144.1 145.98 139.9" fill="black"/>
<path d="M264.93 253.7C270.02 248.72 270.63 243.82 273.09 237.68C273.86 235.77 275.33 234.24 277.03 232.97C280.61 230.3 280.52 224.2 279.73 219.3C279.18 215.9 280.14 212.4 282.4 209.73C285.78 205.73 283.51 198.65 282.97 197.43C280.53 191.86 280.1 190.09 279.03 188.15C278.69 187.55 278.51 186.89 278.61 186.02C278.62 185.79 278.66 185.62 278.67 185.44V185.36C278.76 184.79 278.8 184.41 278.82 184.16C279.64 182.24 284.84 169.2 274.01 164.78C273.78 164.64 273.52 164.55 273.26 164.46C273.26 164.46 273.33 164.19 273.38 163.71C273.88 160.69 275.17 149.6 268 148.86C265.15 148.57 262.65 147.03 260.59 145.13C259.65 144.26 258.48 143.55 257.06 143.35C254.6 143 252.29 141.89 250.48 140.26C246.98 137.12 240.81 133.01 232.55 133.03C230.39 133.03 228.26 132.57 226.36 131.59C223.57 130.15 220.93 130.6 219.01 131.38H218.98C217.23 129.93 214.84 128.82 211.95 129.83C210.3 129.06 208.75 129.04 207.38 129.42C205.55 129.92 203.63 129.89 201.75 129.59C200.46 129.39 199.02 129.47 197.47 130.07C195.47 130.85 193.31 131.08 191.15 130.85C182.94 129.96 176.36 133.4 172.54 136.15C170.56 137.58 168.15 138.43 165.66 138.53C164.25 138.59 163.02 139.16 162 139.92C159.74 141.6 157.08 142.86 154.2 142.85C147.01 142.84 147.11 153.95 147.29 157.03C147.29 157.53 147.33 157.81 147.33 157.81C147.06 157.87 146.79 157.93 146.55 158.02C135.31 161.3 139.14 174.82 139.75 176.81C139.74 177.06 139.75 177.44 139.74 178.02V178.1C139.73 178.28 139.74 178.45 139.74 178.68C139.74 179.59 139.5 180.23 139.1 180.78C137.84 182.57 135.05 183.63 134.21 189.57C134 191.02 133.99 192.25 134.09 193.28C133.5 196.11 133.97 199.49 135.21 201.94C136.44 204.39 137.97 207.36 136.61 209.73C134.31 213.74 133.54 218.27 134.32 220.66C135.43 224.07 139.08 224.42 139.66 226.28C139.92 227.11 141.22 230.92 141.51 231.73C147.11 246.86 155.22 254.45 160.92 260.03C176.36 275.14 223.92 293.86 264.94 253.7H264.93Z" fill="white"/>
<path d="M209.54 280.6C186.96 280.6 167.85 270.59 159.03 261.96L158.46 261.4C152.61 255.69 144.6 247.87 138.98 232.67C138.67 231.84 137.35 227.93 137.08 227.08C137.08 227.2 136.58 226.87 136.21 226.64C134.81 225.73 132.68 224.37 131.75 221.5C130.66 218.18 131.67 212.91 134.26 208.39C134.89 207.29 133.7 204.93 132.83 203.21C131.33 200.22 130.79 196.42 131.37 193.14C131.28 191.9 131.34 190.57 131.54 189.18C132.3 183.81 134.55 181.6 136.05 180.13C136.37 179.82 136.68 179.54 136.9 179.22C136.99 179.09 137.05 179.01 137.05 178.69C137.05 178.64 137.05 178.01 137.05 177.95V177.5C137.05 177.38 137.05 177.27 137.05 177.17C136.29 174.51 134.7 167.3 137.74 161.68C139.21 158.96 141.5 157 144.56 155.84C144.49 152.45 144.87 146.2 148.18 142.7C149.76 141.03 151.84 140.15 154.2 140.15H154.22C156.18 140.15 158.25 139.34 160.39 137.75C162.01 136.55 163.74 135.9 165.55 135.83C167.47 135.75 169.39 135.09 170.96 133.96C175.37 130.78 182.49 127.21 191.43 128.17C193.2 128.36 194.95 128.15 196.48 127.56C198.34 126.84 200.24 126.62 202.16 126.93C203.9 127.2 205.38 127.17 206.65 126.82C208.48 126.32 210.3 126.37 212.08 126.99C214.06 126.54 216.64 126.59 219.43 128.39C222.24 127.62 225.02 127.89 227.57 129.2C229.04 129.96 230.69 130.35 232.49 130.35C232.52 130.35 232.54 130.35 232.57 130.35C241.53 130.35 248.21 134.65 252.24 138.27C253.69 139.57 255.52 140.43 257.41 140.7C259.22 140.96 260.89 141.79 262.38 143.17C264.34 144.98 266.31 146 268.23 146.19C270.59 146.43 272.57 147.53 273.97 149.36C276.87 153.16 276.62 159.33 276.18 162.83C279.1 164.3 281.17 166.49 282.35 169.35C284.78 175.27 282.45 182.25 281.42 184.81C281.39 185.06 281.35 185.37 281.3 185.75C281.3 185.75 281.3 185.88 281.28 186.02C281.22 186.59 281.26 186.68 281.33 186.81C281.99 188.02 282.41 189.07 283.04 190.67C283.57 192 284.26 193.76 285.39 196.34C285.43 196.43 289.29 205.69 284.41 211.46C282.67 213.52 281.92 216.21 282.35 218.86C283.63 226.83 282.37 232.3 278.6 235.12C277.04 236.29 276.04 237.45 275.55 238.67C274.97 240.12 274.5 241.49 274.04 242.82C272.52 247.23 271.08 251.4 266.77 255.62C247.79 274.2 227.53 280.59 209.49 280.59L209.54 280.6ZM154.2 145.55C153.31 145.55 152.66 145.82 152.1 146.42C150.22 148.41 149.79 153.3 149.99 156.88C149.99 157.27 150.01 157.42 150.01 157.47C150.16 158.84 149.27 160.14 147.93 160.44C147.78 160.47 147.62 160.5 147.48 160.56C145.03 161.28 143.45 162.47 142.49 164.26C140.21 168.48 141.96 174.81 142.34 176.04C142.43 176.34 142.47 176.65 142.46 176.96V178.05C142.46 178.47 142.46 178.64 142.44 178.83C142.45 180.07 142.08 181.28 141.29 182.37C140.91 182.91 140.4 183.43 139.83 184C138.63 185.18 137.39 186.4 136.88 189.97C136.72 191.09 136.69 192.12 136.78 193.04C136.81 193.31 136.79 193.59 136.74 193.86C136.29 196.03 136.64 198.8 137.63 200.76C139.08 203.63 141.03 207.49 138.96 211.11C136.82 214.84 136.46 218.54 136.9 219.86C137.22 220.85 137.97 221.37 139.16 222.14C140.3 222.87 141.72 223.79 142.25 225.52C142.5 226.33 143.77 230.05 144.06 230.84C149.26 244.89 156.77 252.23 162.25 257.58L162.83 258.14C177.52 272.52 223.16 290.89 263.08 251.81C266.48 248.48 267.6 245.23 269.02 241.1C269.5 239.7 270.01 238.24 270.62 236.71C271.49 234.54 273.07 232.63 275.44 230.85C277.39 229.39 277.99 225.35 277.09 219.76C276.41 215.56 277.6 211.28 280.36 208.02C282.68 205.28 280.94 199.5 280.52 198.55C279.35 195.88 278.63 194.07 278.09 192.69C277.51 191.23 277.17 190.35 276.69 189.48C276.05 188.35 275.8 187.12 275.96 185.74C275.96 185.71 275.98 185.54 275.99 185.39C275.99 185.37 276.02 185.02 276.03 185C276.1 184.55 276.14 184.26 276.15 184.06C276.17 183.74 276.24 183.43 276.36 183.13C276.86 181.96 279.27 175.87 277.43 171.43C276.66 169.55 275.21 168.2 273.01 167.3C272.88 167.25 272.76 167.19 272.64 167.12C271.31 166.66 270.31 165.18 270.66 163.82C270.66 163.8 270.69 163.66 270.71 163.45C271.32 159.75 271.41 154.83 269.74 152.65C269.24 151.99 268.62 151.66 267.73 151.57C264.62 151.25 261.6 149.76 258.77 147.14C258.1 146.51 257.4 146.15 256.69 146.05C253.76 145.63 250.92 144.3 248.69 142.3C245.36 139.31 239.87 135.76 232.61 135.76C232.59 135.76 232.56 135.76 232.53 135.76C229.9 135.76 227.34 135.16 225.13 134.01C223.54 133.19 221.88 133.15 220.03 133.9C219.66 134.05 219.26 134.12 218.87 134.1C218.29 134.07 217.72 133.85 217.27 133.48C215.27 131.83 213.79 132.07 212.84 132.4C212.18 132.63 211.45 132.59 210.82 132.3C209.91 131.87 209.04 131.79 208.11 132.05C206.08 132.61 203.87 132.69 201.34 132.29C200.36 132.13 199.42 132.24 198.46 132.62C196.13 133.53 193.51 133.85 190.87 133.57C183.64 132.79 177.77 135.75 174.13 138.38C171.71 140.12 168.75 141.15 165.78 141.26C165.08 141.29 164.35 141.58 163.62 142.12C160.53 144.42 157.37 145.59 154.23 145.59H154.2V145.55Z" fill="black"/>
<path d="M166.35 182.37C166.33 182.17 166.33 181.99 166.35 181.79C166.32 182.03 166.28 182.28 166.25 182.52C166.27 182.41 166.36 182.21 166.35 182.1C166.15 182.53 166.12 182.62 166.24 182.36L166.31 182.23C166.52 181.77 165.89 182.64 166.23 182.31C166.3 182.24 166.8 181.81 166.4 182.12C166 182.43 166.47 182.1 166.57 182.04C166.64 182 166.72 181.96 166.79 181.93C166.41 182.08 166.32 182.13 166.52 182.06C166.88 181.97 167.21 181.87 167.58 181.82L166.85 181.92C167.55 181.84 168.25 181.86 168.94 181.95L168.21 181.85C168.64 181.91 169.07 182 169.48 182.13C169.73 182.21 170.42 182.56 169.63 182.15C169.82 182.25 170.01 182.33 170.2 182.44C170.27 182.48 170.68 182.8 170.73 182.78C170.68 182.8 170.22 182.33 170.49 182.6C170.57 182.68 170.66 182.75 170.74 182.83C170.8 182.89 170.86 182.96 170.92 183.03C171.15 183.26 170.54 182.47 170.78 182.84C170.9 183.03 171.01 183.22 171.11 183.43C171.39 184.02 172.15 184.53 172.76 184.7C173.42 184.88 174.3 184.8 174.89 184.42C176.25 183.55 176.53 182.05 175.88 180.64C174.57 177.82 171.28 176.57 168.38 176.36C166.72 176.24 164.87 176.53 163.46 177.47C161.89 178.52 160.62 180.39 160.83 182.36C160.91 183.11 161.08 183.76 161.64 184.31C162.12 184.79 162.91 185.15 163.59 185.12C164.95 185.06 166.52 183.9 166.35 182.36V182.37Z" fill="black"/>
<path d="M202.63 191.04C202.63 190.9 202.63 190.78 202.65 190.65C202.62 190.89 202.58 191.14 202.55 191.38C202.58 191.25 202.71 190.89 202.52 191.34C202.33 191.79 202.48 191.47 202.52 191.37C202.64 191.1 202.05 191.85 202.37 191.55C202.46 191.47 202.78 191.2 202.39 191.49C202.03 191.77 202.3 191.56 202.39 191.51C202.8 191.27 202.26 191.49 202.21 191.57C202.31 191.43 202.85 191.41 203 191.38L202.27 191.48C202.77 191.43 203.26 191.44 203.76 191.51L203.03 191.41C203.57 191.49 204.1 191.61 204.61 191.79C204.73 191.83 204.84 191.88 204.96 191.92C205.28 192.04 204.35 191.64 204.77 191.85C205.01 191.97 205.25 192.09 205.49 192.23C205.7 192.36 205.9 192.5 206.1 192.63C206.38 192.81 205.59 192.21 205.95 192.51C206.06 192.6 206.17 192.7 206.28 192.8C206.46 192.96 206.63 193.14 206.79 193.31C206.81 193.34 207.08 193.61 207.07 193.64C207.09 193.56 206.63 193.04 206.98 193.54C207.4 194.14 207.9 194.61 208.63 194.81C209.29 194.99 210.17 194.91 210.76 194.53C211.93 193.77 212.64 192.01 211.75 190.75C210.14 188.47 207.77 186.73 204.99 186.16C203.22 185.8 201.41 185.8 199.77 186.64C198.13 187.48 197.01 189.23 197.08 191.03C197.13 192.47 198.31 193.86 199.84 193.79C201.29 193.72 202.66 192.57 202.6 191.03L202.63 191.04Z" fill="black"/>
<path d="M238.44 171.67C238.56 172.5 238.5 172.1 238.5 171.89C238.51 171.32 238.5 172.12 238.46 172.12C238.46 172.12 238.55 171.81 238.56 171.77C238.64 171.46 238.25 172.36 238.48 171.96C238.54 171.85 238.67 171.69 238.71 171.58C238.68 171.67 238.3 172.05 238.56 171.79C238.67 171.68 238.77 171.58 238.88 171.47C239.15 171.21 238.77 171.59 238.68 171.62C238.79 171.58 238.97 171.44 239.07 171.38C239.39 171.19 238.93 171.45 238.83 171.47C239.07 171.43 239.39 171.34 239.62 171.25C239.19 171.3 239.09 171.32 239.3 171.3C239.38 171.3 239.47 171.29 239.55 171.29C239.66 171.29 239.78 171.29 239.89 171.29C239.97 171.29 240.06 171.29 240.14 171.31C240.36 171.33 240.25 171.31 239.83 171.26C239.92 171.32 240.14 171.32 240.25 171.35C240.39 171.38 240.53 171.42 240.66 171.46C240.76 171.49 241.23 171.69 240.81 171.5C240.39 171.31 240.9 171.55 240.95 171.57C241.08 171.63 241.2 171.7 241.32 171.78C241.44 171.86 241.56 171.93 241.68 172.01C242.09 172.27 241.35 171.72 241.6 171.94C241.81 172.13 242.03 172.32 242.23 172.52C242.33 172.62 242.43 172.73 242.52 172.83L242.63 172.96C242.78 173.14 242.78 173.14 242.63 172.95C242.48 172.57 242.65 172.97 242.72 173.08C242.8 173.2 242.88 173.32 242.96 173.44C243.29 173.94 243.57 174.47 243.84 175.01C244.48 176.31 246.43 176.77 247.62 176C248.95 175.14 249.29 173.61 248.61 172.22C247.89 170.75 246.93 169.29 245.7 168.2C244.15 166.83 242.37 166.01 240.31 165.8C238.35 165.59 236.43 166.28 234.97 167.58C234.2 168.26 233.66 169.16 233.3 170.12C232.92 171.13 232.95 172.11 233.1 173.16C233.19 173.8 233.85 174.5 234.37 174.81C234.96 175.16 235.84 175.3 236.5 175.09C237.16 174.88 237.81 174.46 238.15 173.82C238.52 173.12 238.54 172.47 238.43 171.69L238.44 171.67Z" fill="black"/>
<path d="M219.18 217.31C220.04 216.65 220.91 216 221.85 215.45C222.08 215.31 222.32 215.19 222.56 215.07C222.67 215.02 222.78 214.97 222.89 214.92C223.2 214.77 222.33 215.12 222.81 214.96C223.07 214.87 223.32 214.79 223.58 214.72C223.87 214.65 224.61 214.63 223.72 214.65C224.14 214.64 224.55 214.62 224.98 214.65C225.32 214.68 224.29 214.52 224.76 214.63C224.86 214.65 224.95 214.67 225.05 214.69C225.26 214.74 225.47 214.82 225.68 214.89C225.99 215 225.09 214.58 225.48 214.82C225.56 214.87 225.65 214.91 225.73 214.96C225.83 215.02 225.92 215.1 226.03 215.15C226.26 215.27 225.66 214.77 225.8 214.98C225.85 215.06 225.98 215.16 226.05 215.22C226.31 215.45 225.91 215.05 225.88 214.98C225.97 215.19 226.35 215.91 226 215.04C226.29 215.74 226.59 216.3 227.27 216.69C227.86 217.04 228.74 217.18 229.4 216.97C230.68 216.56 231.92 215 231.33 213.57C230.72 212.09 229.8 210.86 228.34 210.09C227.07 209.42 225.61 209.06 224.18 209.1C221.2 209.19 218.69 210.8 216.4 212.55C215.8 213 215.34 213.45 215.13 214.2C214.95 214.86 215.03 215.74 215.41 216.33C216.14 217.46 217.96 218.26 219.19 217.32L219.18 217.31Z" fill="black"/>
<path d="M244.33 208.49C245.11 207.54 245.47 206.63 245.55 205.4C245.57 205.1 245.55 204.8 245.54 204.5C245.54 204.36 245.54 204.22 245.54 204.09C245.54 203.86 245.67 203.4 245.51 204.18C245.6 203.72 245.27 204.6 245.42 204.35C245.58 204.08 244.94 204.82 245.27 204.54C245.64 204.23 244.68 204.85 245.13 204.64C245.23 204.59 245.62 204.39 245.17 204.6C244.72 204.81 245.13 204.63 245.25 204.6C245.37 204.57 245.57 204.56 245.68 204.51C245.53 204.58 244.99 204.58 245.47 204.55C245.62 204.55 245.77 204.54 245.93 204.55C246.06 204.55 246.18 204.55 246.31 204.57C246.38 204.57 246.46 204.58 246.53 204.59C246.72 204.61 246.63 204.59 246.24 204.55C246.3 204.48 247.06 204.7 247.16 204.72C247.83 204.87 248.48 205.08 249.13 205.32C249.61 205.5 248.76 205.14 249.07 205.29C249.21 205.36 249.35 205.42 249.49 205.49C249.82 205.65 250.15 205.83 250.47 206.02C250.74 206.18 250.99 206.35 251.25 206.52C251.33 206.57 251.4 206.63 251.48 206.68C251.64 206.8 251.58 206.75 251.29 206.53C251.43 206.57 251.61 206.79 251.72 206.88C252.82 207.82 254.56 208.04 255.63 206.88C256.58 205.85 256.8 203.97 255.63 202.97C252.97 200.69 249.5 199.07 245.94 199.01C244.24 198.98 242.33 199.48 241.2 200.83C240.42 201.78 240.06 202.85 240.03 204.09C240.03 204.42 240.05 204.75 240.05 205.08C240.05 205.19 240.08 205.88 240.05 205.34C240.09 205.08 240.09 205.05 240.03 205.27C240.1 205 240.23 204.77 240.43 204.58C239.95 205.16 239.62 205.75 239.62 206.53C239.62 207.21 239.92 208.02 240.43 208.48C241.44 209.41 243.36 209.67 244.34 208.48L244.33 208.49Z" fill="black"/>
<path d="M204.08 162.94C204.04 162.87 204.01 162.8 203.98 162.72C204.07 162.94 204.17 163.16 204.26 163.38C204.15 163.12 204.08 162.86 204.04 162.58C204.07 162.82 204.11 163.07 204.14 163.31C204.1 162.99 204.1 162.68 204.14 162.36L204.04 163.09C204.09 162.77 204.17 162.47 204.28 162.17L204 162.83C204.13 162.53 204.28 162.26 204.48 162C204.34 162.19 204.19 162.37 204.05 162.56C204.23 162.34 204.43 162.14 204.65 161.96L204.09 162.39C204.36 162.19 204.63 162.04 204.94 161.9L204.28 162.18C204.68 162.02 205.08 161.91 205.51 161.84L204.78 161.94C205.24 161.88 205.7 161.88 206.16 161.94L205.43 161.84C205.93 161.91 206.41 162.04 206.88 162.23L206.22 161.95C206.68 162.15 207.11 162.4 207.51 162.7L206.95 162.27C207.3 162.55 207.62 162.87 207.9 163.22L207.47 162.66C207.69 162.95 207.87 163.26 208.02 163.6C208.29 164.19 209.07 164.7 209.67 164.87C210.33 165.05 211.21 164.97 211.8 164.59C212.39 164.21 212.91 163.64 213.07 162.94C213.24 162.17 213.11 161.52 212.79 160.81C212.12 159.34 210.79 158.05 209.35 157.33C207.6 156.46 205.77 156.19 203.85 156.54C202.02 156.88 200.19 158.11 199.35 159.81C198.41 161.73 198.39 163.78 199.35 165.7C200 167 201.93 167.46 203.13 166.69C204.46 165.83 204.81 164.3 204.12 162.91L204.08 162.94Z" fill="black"/>
<path d="M173.62 209.81C173.53 209.55 173.47 209.29 173.42 209.02C173.45 209.26 173.49 209.51 173.52 209.75C173.47 209.37 173.47 208.99 173.52 208.6C173.49 208.84 173.45 209.09 173.42 209.33C173.48 208.91 173.59 208.5 173.75 208.1L173.47 208.76C173.64 208.36 173.85 208 174.11 207.65L173.68 208.21C173.93 207.9 174.2 207.63 174.51 207.38L173.95 207.81C174.27 207.57 174.61 207.37 174.97 207.21L174.31 207.49C174.68 207.34 175.06 207.24 175.45 207.19L174.72 207.29C175.16 207.24 175.59 207.24 176.02 207.29L175.29 207.19C175.81 207.26 176.3 207.39 176.78 207.59L176.12 207.31C176.52 207.49 176.89 207.7 177.24 207.96L176.68 207.53C176.99 207.77 177.26 208.04 177.5 208.35L177.07 207.79C177.19 207.94 177.29 208.1 177.39 208.27C178.12 209.52 179.92 210.07 181.17 209.26C182.42 208.45 182.94 206.81 182.16 205.48C180.75 203.09 177.91 201.59 175.14 201.72C173.74 201.79 172.3 202.18 171.17 203.04C169.87 204.02 168.97 205.21 168.39 206.74C167.86 208.13 167.82 209.85 168.31 211.26C168.78 212.62 170.23 213.67 171.71 213.19C173.06 212.75 174.14 211.25 173.64 209.79L173.62 209.81Z" fill="black"/>
<path d="M188.1 236.04C188.29 236 188.48 235.96 188.67 235.93L187.94 236.03C188.63 235.94 189.32 235.94 190.01 236.03L189.28 235.93C189.97 236.03 190.64 236.21 191.28 236.48L190.62 236.2C191.26 236.47 191.85 236.81 192.4 237.23L191.84 236.8C192.32 237.18 192.74 237.6 193.11 238.08L192.68 237.52C192.82 237.7 192.94 237.88 193.06 238.08C193.82 239.31 195.56 239.9 196.84 239.07C198.07 238.28 198.65 236.6 197.83 235.29C195.5 231.54 190.89 229.77 186.63 230.71C185.22 231.02 184.26 232.74 184.7 234.11C185.18 235.6 186.59 236.37 188.1 236.04Z" fill="black"/>
<path d="M233.9 101.96C207.56 63.63 162.46 70.93 162.46 70.93C136.08 74.93 117.06 95.68 117.06 95.68C110.13 103.99 105.43 112.8 102.36 121.58C104.59 133.05 112.2 143.69 129.83 149.85C129.36 157.51 129.78 165.91 134.75 160.27C134.78 160.23 130.97 154.48 134.42 162.69C136.69 168.09 144.62 153.66 150.45 154.33C150.62 154.35 150.79 154.37 150.95 154.39C154.22 154.75 157.28 153.1 159.23 150.45C161.5 147.37 164.86 145.28 169.43 144.57C176.55 143.45 188.23 145.19 195.67 145.02C201.67 144.89 207.65 144.25 213.44 142.75C252.64 132.46 233.89 101.97 233.89 101.97L233.9 101.96Z" fill="black"/>
<path d="M208.3 98.18C201.37 98.18 195.38 93.47 193.75 86.73C192.81 82.84 193.43 78.82 195.51 75.4C197.59 71.98 200.88 69.58 204.77 68.63C205.94 68.35 207.13 68.2 208.32 68.2C215.25 68.2 221.23 72.91 222.87 79.65C223.81 83.54 223.19 87.56 221.11 90.98C219.03 94.4 215.74 96.8 211.85 97.75C210.68 98.03 209.49 98.18 208.3 98.18Z" fill="white"/>
<path d="M208.32 70.21C214.17 70.21 219.48 74.19 220.92 80.12C222.61 87.08 218.34 94.1 211.38 95.79C210.35 96.04 209.32 96.16 208.3 96.16C202.45 96.16 197.14 92.18 195.7 86.25C194.01 79.29 198.28 72.27 205.24 70.58C206.27 70.33 207.3 70.21 208.31 70.21M208.31 66.19C206.96 66.19 205.61 66.35 204.29 66.67C195.19 68.88 189.58 78.09 191.79 87.2C193.65 94.84 200.43 100.18 208.29 100.18C209.64 100.18 210.99 100.02 212.31 99.7C221.41 97.49 227.02 88.28 224.81 79.17C222.95 71.52 216.17 66.19 208.31 66.19Z" fill="black"/>
<path d="M208.18 91.25C212.852 91.25 216.64 87.4623 216.64 82.79C216.64 78.1177 212.852 74.33 208.18 74.33C203.508 74.33 199.72 78.1177 199.72 82.79C199.72 87.4623 203.508 91.25 208.18 91.25Z" fill="black"/>
<path d="M208.16 92.02C206.49 92.02 204.84 91.56 203.37 90.67C201.26 89.39 199.78 87.36 199.2 84.97C198.62 82.57 199 80.1 200.29 77.99C201.57 75.88 203.6 74.4 205.99 73.82C208.39 73.24 210.87 73.62 212.97 74.91C215.08 76.19 216.56 78.22 217.14 80.62C217.72 83.02 217.34 85.49 216.06 87.6C214.78 89.71 212.75 91.19 210.35 91.77C209.62 91.95 208.89 92.03 208.16 92.03V92.02ZM208.19 75.1C207.58 75.1 206.97 75.17 206.36 75.32C204.37 75.8 202.68 77.04 201.61 78.79C200.54 80.54 200.22 82.61 200.71 84.6C201.19 86.59 202.43 88.28 204.18 89.35C205.94 90.42 208.01 90.74 209.99 90.25C211.99 89.77 213.67 88.54 214.74 86.78C215.81 85.03 216.13 82.96 215.64 80.97C215.15 78.98 213.92 77.29 212.17 76.22C210.95 75.48 209.58 75.1 208.19 75.1Z" fill="white"/>
<path d="M172.14 114.23C165.21 114.23 159.23 109.52 157.59 102.78C155.64 94.75 160.58 86.63 168.61 84.68C169.78 84.4 170.97 84.25 172.16 84.25C179.09 84.25 185.07 88.96 186.71 95.7C188.66 103.73 183.72 111.85 175.69 113.8C174.52 114.08 173.33 114.23 172.14 114.23Z" fill="white"/>
<path d="M172.16 86.26C178.01 86.26 183.32 90.24 184.76 96.17C186.45 103.13 182.18 110.15 175.22 111.84C174.19 112.09 173.16 112.21 172.15 112.21C166.3 112.21 160.99 108.23 159.55 102.3C157.86 95.34 162.13 88.32 169.09 86.63C170.12 86.38 171.15 86.26 172.17 86.26M172.17 82.24C170.82 82.24 169.47 82.4 168.15 82.72C159.05 84.93 153.44 94.14 155.65 103.25C157.51 110.89 164.29 116.23 172.15 116.23C173.5 116.23 174.85 116.07 176.17 115.75C180.58 114.68 184.31 111.95 186.67 108.08C189.03 104.2 189.74 99.64 188.67 95.23C186.81 87.59 180.03 82.25 172.17 82.25V82.24Z" fill="black"/>
<path d="M172.02 107.29C176.692 107.29 180.48 103.502 180.48 98.83C180.48 94.1577 176.692 90.37 172.02 90.37C167.348 90.37 163.56 94.1577 163.56 98.83C163.56 103.502 167.348 107.29 172.02 107.29Z" fill="black"/>
<path d="M172 108.07C170.33 108.07 168.68 107.61 167.21 106.72C165.1 105.44 163.62 103.41 163.04 101.02C161.84 96.07 164.89 91.07 169.83 89.87C174.78 88.67 179.78 91.72 180.98 96.66C182.18 101.61 179.13 106.61 174.18 107.81C173.45 107.99 172.72 108.07 171.99 108.07H172ZM164.55 100.65C165.03 102.64 166.27 104.33 168.02 105.4C169.77 106.47 171.84 106.79 173.83 106.3C177.95 105.3 180.48 101.14 179.48 97.02C178.48 92.9 174.31 90.37 170.2 91.37C166.09 92.37 163.55 96.53 164.55 100.65Z" fill="white"/>
<path d="M229.87 105.02C229.87 105.02 225.85 98.65 217.52 104.83C209.42 110.84 209.72 112.32 187.19 114.66C183.65 115.03 180.36 117.35 179.47 120.8C178.82 123.32 179.08 126.4 181.5 129.89C188.5 139.99 211.75 135.65 220.49 130.25C229.23 124.85 236 114.02 229.88 105.02H229.87Z" fill="white"/>
<path d="M197.37 127.71C195.5 127.71 193.54 127.57 191.5 127.26C189.83 127.01 188.69 125.45 188.94 123.78C189.19 122.12 190.73 120.97 192.42 121.22C210.39 123.95 220.57 110.72 220.67 110.58C221.68 109.23 223.59 108.96 224.94 109.97C226.29 110.98 226.56 112.9 225.55 114.25C225.1 114.85 215.21 127.71 197.37 127.71Z" fill="black"/>
<path d="M119.11 119.4C117.27 115.7 113.94 112.87 109.91 111.96C103.14 110.44 91.7 110.14 77.57 118.71C54.46 132.73 91.11 179.78 107.69 162.81C115.53 154.79 120.14 148.06 122.82 143.19C125.4 138.51 125.6 132.9 123.39 128.03L119.1 119.39L119.11 119.4Z" fill="white"/>
<path d="M99.18 169.51C97.18 169.51 95.09 169.14 92.94 168.39C80.69 164.14 68.68 148.54 67.25 135.01C66.38 126.78 69.49 120.06 76.01 116.11C90.81 107.12 102.98 107.28 110.6 108.99C115.44 110.08 119.54 113.38 121.86 118.05L126.14 126.69C128.78 132.5 128.53 139.19 125.51 144.68C121.92 151.21 116.66 158.03 109.89 164.96C106.95 167.97 103.26 169.51 99.18 169.51ZM102.2 114.18C96.08 114.18 88.24 115.82 79.17 121.33C74.66 124.07 72.69 128.46 73.32 134.37C74.49 145.45 85 159.18 94.94 162.63C99.25 164.13 102.8 163.47 105.52 160.69C111.81 154.25 116.87 147.69 120.15 141.73C122.25 137.93 122.42 133.28 120.62 129.31L116.38 120.76C114.88 117.75 112.28 115.63 109.25 114.95C107.26 114.5 104.89 114.18 102.2 114.18Z" fill="black"/>
<path d="M71.77 144C70.96 144 70.15 143.68 69.55 143.04C68.4 141.81 68.45 139.88 69.68 138.73C70.43 138.03 88.34 121.49 119.51 119.14C121.2 119.02 122.66 120.28 122.78 121.95C122.91 123.63 121.64 125.1 119.97 125.22C90.93 127.41 74.03 143.01 73.87 143.17C73.28 143.73 72.53 144 71.78 144H71.77Z" fill="black"/>
<path d="M82.41 160.02C81.63 160.02 80.85 159.72 80.26 159.13C79.06 157.94 79.06 156.01 80.24 154.81C81.18 153.86 103.46 131.59 122.91 127.05C124.57 126.67 126.19 127.69 126.58 129.33C126.96 130.97 125.94 132.61 124.3 133C106.57 137.14 84.8 158.9 84.58 159.12C83.98 159.72 83.2 160.02 82.41 160.02Z" fill="black"/>
<path d="M291.7 176.4C288.71 175.04 286.08 172.91 284.16 170.12C276.03 158.4 268.99 139.84 268.11 131.94C267 121.93 264.88 114.37 287.89 103.65C298.2 98.85 305.71 99.28 310.64 100.91C314.38 102.15 317.54 104.72 319.84 107.92C337.47 132.39 328.18 154.91 319.77 167.45C317.65 170.62 314.85 173.19 311.62 175C307.43 144.73 295.29 120.14 295.29 120.14C300.27 132.23 294.25 164.3 291.68 176.41L291.7 176.4Z" fill="white"/>
<path d="M291.7 179.46C291.27 179.46 290.84 179.37 290.44 179.19C286.88 177.57 283.84 175.04 281.65 171.87C273.48 160.09 266.03 140.92 265.08 132.29L264.91 130.86C263.58 119.48 264.38 111.25 286.6 100.89C298.16 95.51 306.58 96.36 311.6 98.02C315.79 99.41 319.49 102.22 322.32 106.14C341.36 132.56 330.49 156.96 322.32 169.15C319.97 172.66 316.79 175.6 313.13 177.66C312.25 178.15 311.18 178.18 310.28 177.74C309.37 177.29 308.75 176.42 308.61 175.42C306.75 162.02 303.29 149.7 300.06 140.23C299.3 153.73 296.4 168.94 294.69 177.04C294.5 177.95 293.91 178.72 293.08 179.13C292.65 179.35 292.17 179.46 291.7 179.46ZM303.41 102.85C299.08 102.85 294.27 104.05 289.18 106.42C269.29 115.69 269.96 121.44 270.97 130.15L271.14 131.62C271.9 138.44 278.47 156.59 286.66 168.4C287.47 169.58 288.46 170.64 289.57 171.54C292.12 158.62 296.69 131.53 292.48 121.31C291.85 119.79 292.55 118.04 294.05 117.37C295.54 116.69 297.32 117.32 298.04 118.8C298.52 119.77 309.17 141.58 313.89 169.64C315.16 168.49 316.29 167.19 317.24 165.76C326.15 152.48 333.4 131.97 317.36 109.72C315.29 106.84 312.63 104.8 309.67 103.82C307.73 103.18 305.63 102.86 303.4 102.86L303.41 102.85Z" fill="black"/>
<path d="M299.72 178.11C299.63 178.12 299.54 178.11 299.44 178.11C296.74 178.11 294.09 177.5 291.7 176.4C294.26 164.29 300.28 132.22 295.31 120.13C295.31 120.13 307.44 144.73 311.64 174.99C308.06 177.03 303.97 178.13 299.73 178.1L299.72 178.11Z" fill="black"/>
<path d="M299.85 181.16H299.71C299.54 181.16 299.36 181.16 299.25 181.16C296.35 181.16 293.24 180.47 290.43 179.18C289.13 178.58 288.42 177.17 288.72 175.77C290.81 165.91 297.25 132.85 292.49 121.3C291.86 119.78 292.56 118.03 294.06 117.36C295.55 116.68 297.33 117.31 298.05 118.79C298.56 119.81 310.45 144.18 314.66 174.58C314.83 175.82 314.23 177.03 313.15 177.65C309.11 179.95 304.52 181.16 299.86 181.16H299.85ZM299.56 175.05C299.64 175.05 299.74 175.05 299.85 175.05C302.77 175.05 305.65 174.44 308.3 173.26C306.39 160.7 303.12 149.18 300.06 140.22C299.37 152.4 296.95 165.97 295.22 174.45C296.6 174.84 298.03 175.04 299.45 175.05C299.49 175.05 299.52 175.05 299.55 175.05H299.56Z" fill="black"/>
<path d="M307.48 163.41C307.04 163.41 306.58 163.31 306.16 163.11C304.64 162.38 304 160.55 304.74 159.03L313.84 140.17C314.58 138.65 316.4 138.02 317.91 138.75C319.43 139.48 320.07 141.31 319.33 142.83L310.23 161.69C309.7 162.78 308.61 163.42 307.48 163.42V163.41Z" fill="black"/>
<path d="M302.41 151.9C301.97 151.9 301.51 151.8 301.09 151.6C299.57 150.87 298.93 149.04 299.67 147.52L308.77 128.66C309.51 127.14 311.34 126.51 312.84 127.24C314.36 127.97 315 129.8 314.26 131.32L305.16 150.18C304.63 151.27 303.54 151.91 302.41 151.91V151.9Z" fill="black"/>
<path d="M298.05 140.49C297.61 140.49 297.15 140.39 296.72 140.19C295.2 139.46 294.57 137.63 295.3 136.11L304.4 117.25C305.14 115.73 306.96 115.1 308.48 115.83C310 116.56 310.63 118.39 309.9 119.91L300.8 138.77C300.27 139.86 299.18 140.5 298.05 140.5V140.49Z" fill="black"/>
<path d="M299.36 144.66C298.46 144.66 297.57 144.26 296.96 143.5L283.96 127.09C282.92 125.77 283.14 123.85 284.46 122.8C285.78 121.75 287.7 121.98 288.75 123.3L301.75 139.71C302.79 141.03 302.57 142.95 301.25 144C300.69 144.44 300.02 144.66 299.36 144.66Z" fill="black"/>
<path d="M299.1 153.82C298.39 153.82 297.67 153.57 297.09 153.07L281.91 139.83C280.64 138.72 280.51 136.79 281.62 135.52C282.73 134.25 284.66 134.12 285.93 135.23L301.11 148.47C302.38 149.58 302.51 151.51 301.4 152.78C300.8 153.47 299.95 153.83 299.1 153.83V153.82Z" fill="black"/>
<path d="M297 164.4C296.23 164.4 295.46 164.11 294.87 163.53L280.57 149.59C279.36 148.41 279.34 146.48 280.52 145.27C281.69 144.06 283.63 144.04 284.84 145.21L299.14 159.15C300.35 160.33 300.37 162.26 299.19 163.47C298.59 164.08 297.8 164.39 297 164.39V164.4Z" fill="black"/>
</g>
<defs>
<clipPath id="clip0_5_295">
<rect width="400" height="400" fill="white"/>
</clipPath>
</defs>
</svg>
